<svg width="566" height="107" viewBox="0 0 566 107" fill="none" xmlns="http://www.w3.org/2000/svg">
<path d="M4.28125 71.0938C4.28125 80.125 4.21875 83.8125 4.03125 86.4375H5.5C5.75 84.5938 6.09375 83.625 6.90625 83.625C7.4375 83.625 8.0625 83.875 9.09375 84.5312C10.9375 85.6875 13.3125 86.9062 17.8438 86.9062C25.2812 86.9062 31.4375 82.875 31.4375 74.75C31.4375 67.875 26.5625 64.5 19.9062 60.3438C14.1562 56.75 9.15625 54.4375 9.15625 48.625C9.15625 44.2188 12.4062 41.1875 16.9688 41.1875C24.0625 41.1875 27 47.4062 27.4688 53.5H28.9375C28.9375 45.4375 29.0625 42.6875 29.25 40.4375H27.7812C27.5312 42.2812 27.1875 43.25 26.375 43.25C25.7812 43.25 25.2188 43 24.1875 42.3438C22.4688 41.1875 20.5938 39.9688 16.375 39.9688C10.0625 39.9688 4.34375 43.5 4.34375 51.0625C4.34375 58.2812 9.65625 61.75 15.75 65.4062C21.6875 68.9688 25.7188 71.9062 25.7188 77.0938C25.7188 83.125 21.5625 85.625 17.4062 85.625C9.21875 85.625 6.28125 78.8438 5.75 71.0938H4.28125Z" fill="#B48570"/>
<path d="M4.28125 71.0938C4.28125 80.125 4.21875 83.8125 4.03125 86.4375H5.5C5.75 84.5938 6.09375 83.625 6.90625 83.625C7.4375 83.625 8.0625 83.875 9.09375 84.5312C10.9375 85.6875 13.3125 86.9062 17.8438 86.9062C25.2812 86.9062 31.4375 82.875 31.4375 74.75C31.4375 67.875 26.5625 64.5 19.9062 60.3438C14.1562 56.75 9.15625 54.4375 9.15625 48.625C9.15625 44.2188 12.4062 41.1875 16.9688 41.1875C24.0625 41.1875 27 47.4062 27.4688 53.5H28.9375C28.9375 45.4375 29.0625 42.6875 29.25 40.4375H27.7812C27.5312 42.2812 27.1875 43.25 26.375 43.25C25.7812 43.25 25.2188 43 24.1875 42.3438C22.4688 41.1875 20.5938 39.9688 16.375 39.9688C10.0625 39.9688 4.34375 43.5 4.34375 51.0625C4.34375 58.2812 9.65625 61.75 15.75 65.4062C21.6875 68.9688 25.7188 71.9062 25.7188 77.0938C25.7188 83.125 21.5625 85.625 17.4062 85.625C9.21875 85.625 6.28125 78.8438 5.75 71.0938H4.28125Z" fill="url(#paint0_linear)"/>
<path d="M153.594 56.125C154.469 47.2188 155.438 44.1562 163.438 44.1562H166.906V80.5625C166.906 85.75 165.812 86.5312 160.438 86.7188V88C162.469 87.875 166.062 87.8125 169.906 87.8125C173.375 87.8125 177.062 87.875 179.312 88V86.7188C173.938 86.5312 172.844 85.75 172.844 80.5625V44.1562H176.312C184.312 44.1562 185.25 47.2188 186.156 56.125H187.625C187.5 54.7812 187.438 52.9375 187.438 50.875C187.438 49.2812 187.562 45.9375 187.875 42.6875C182.562 42.875 175.156 42.875 169.906 42.875C164.656 42.875 157.156 42.875 151.844 42.6875C152.188 45.9375 152.312 49.2812 152.312 50.875C152.312 52.9375 152.25 54.7812 152.125 56.125H153.594Z" fill="#B48570"/>
<path d="M153.594 56.125C154.469 47.2188 155.438 44.1562 163.438 44.1562H166.906V80.5625C166.906 85.75 165.812 86.5312 160.438 86.7188V88C162.469 87.875 166.062 87.8125 169.906 87.8125C173.375 87.8125 177.062 87.875 179.312 88V86.7188C173.938 86.5312 172.844 85.75 172.844 80.5625V44.1562H176.312C184.312 44.1562 185.25 47.2188 186.156 56.125H187.625C187.5 54.7812 187.438 52.9375 187.438 50.875C187.438 49.2812 187.562 45.9375 187.875 42.6875C182.562 42.875 175.156 42.875 169.906 42.875C164.656 42.875 157.156 42.875 151.844 42.6875C152.188 45.9375 152.312 49.2812 152.312 50.875C152.312 52.9375 152.25 54.7812 152.125 56.125H153.594Z" fill="url(#paint1_linear)"/>
<path d="M94.968 63.32H109.816V65.24H94.968V80.28H92.664V65.24H77.752V63.32H92.664V48.216H94.968V63.32Z" fill="#B48570"/>
<path d="M94.968 63.32H109.816V65.24H94.968V80.28H92.664V65.24H77.752V63.32H92.664V48.216H94.968V63.32Z" fill="url(#paint2_linear)"/>
<path d="M248.969 62.3125V47.2188H246.656V62.3125H231.75V64.25H246.656V79.2812H248.969V64.25H263.812V62.3125H248.969Z" fill="#B48570"/>
<path d="M248.969 62.3125V47.2188H246.656V62.3125H231.75V64.25H246.656V79.2812H248.969V64.25H263.812V62.3125H248.969Z" fill="url(#paint3_linear)"/>
<path d="M419.75 56.75V54.8438H387.688V56.75H419.75ZM419.75 65.7188V63.8125H387.688V65.7188H419.75Z" fill="#B48570"/>
<path d="M419.75 56.75V54.8438H387.688V56.75H419.75ZM419.75 65.7188V63.8125H387.688V65.7188H419.75Z" fill="url(#paint4_linear)"/>
<path d="M349.99 62.781C350.143 63.0024 350.238 63.2711 350.238 63.5614C350.238 64.1434 349.872 64.6376 349.356 64.828C347.269 66.308 336.096 74.6949 327.729 90.1236C327.565 90.5341 327.219 90.8636 326.784 90.9622C326.671 90.9905 326.557 90.9986 326.444 90.9986C325.986 90.9986 325.558 90.788 325.321 90.387C325.257 90.2924 325.207 90.1898 325.169 90.0791C324.084 87.9726 316.889 74.6557 303.586 64.7524C303.102 64.5472 302.765 64.0678 302.765 63.5088C302.765 63.498 302.765 63.4872 302.765 63.4791C302.759 63.2225 302.825 62.9646 302.966 62.7377C303.125 62.4812 303.364 62.2881 303.64 62.1841C305.367 60.9769 316.669 52.7021 325.198 37.0519C325.33 36.451 325.87 36 326.514 36C326.779 36 327.026 36.077 327.234 36.2079C327.522 36.37 327.742 36.6347 327.848 36.9547C328.676 38.5872 335.867 52.2376 349.507 62.3434C349.702 62.4488 349.869 62.5987 349.99 62.781Z" fill="#B48570"/>
<path d="M349.99 62.781C350.143 63.0024 350.238 63.2711 350.238 63.5614C350.238 64.1434 349.872 64.6376 349.356 64.828C347.269 66.308 336.096 74.6949 327.729 90.1236C327.565 90.5341 327.219 90.8636 326.784 90.9622C326.671 90.9905 326.557 90.9986 326.444 90.9986C325.986 90.9986 325.558 90.788 325.321 90.387C325.257 90.2924 325.207 90.1898 325.169 90.0791C324.084 87.9726 316.889 74.6557 303.586 64.7524C303.102 64.5472 302.765 64.0678 302.765 63.5088C302.765 63.498 302.765 63.4872 302.765 63.4791C302.759 63.2225 302.825 62.9646 302.966 62.7377C303.125 62.4812 303.364 62.2881 303.64 62.1841C305.367 60.9769 316.669 52.7021 325.198 37.0519C325.33 36.451 325.87 36 326.514 36C326.779 36 327.026 36.077 327.234 36.2079C327.522 36.37 327.742 36.6347 327.848 36.9547C328.676 38.5872 335.867 52.2376 349.507 62.3434C349.702 62.4488 349.869 62.5987 349.99 62.781Z" fill="url(#paint5_linear)"/>
<path d="M455.605 100.891C455.605 103.984 455.582 105.285 455.512 106.164H456.062C456.156 105.473 456.285 105.109 456.59 105.109C456.789 105.109 457.023 105.203 457.41 105.449C458.102 105.883 458.992 106.34 460.691 106.34C463.363 106.34 465.613 104.969 465.613 102.262C465.613 100.047 463.715 98.875 461.219 97.5508C459.18 96.4023 457.434 95.7227 457.434 93.9062C457.434 92.5352 458.652 91.5273 460.363 91.5273C463.023 91.5273 464.125 93.6133 464.301 95.6523H464.852C464.852 92.9219 464.898 91.9844 464.969 91.2344H464.418C464.324 91.9141 464.195 92.3008 463.891 92.3008C463.668 92.3008 463.457 92.1953 463.07 91.9609C462.426 91.5273 461.723 91.0703 460.141 91.0703C457.773 91.0703 455.629 92.3242 455.629 94.8203C455.629 97.1641 457.504 98.3477 459.66 99.4492C461.898 100.598 463.48 101.465 463.48 103.141C463.48 105.062 461.969 105.859 460.527 105.859C457.457 105.859 456.355 103.551 456.156 100.891H455.605ZM473.969 91.4102C473.23 91.457 472.023 91.4805 470.922 91.4805C469.68 91.4805 468.52 91.457 467.852 91.4102V91.8906C469.48 91.9609 469.797 92.1953 469.797 93.9531V103.457C469.797 105.203 469.48 105.449 467.852 105.52V106C468.52 105.953 469.68 105.93 470.922 105.93C472.023 105.93 473.23 105.953 473.969 106V105.52C472.34 105.449 472.023 105.203 472.023 103.457V93.9531C472.023 92.1953 472.34 91.9609 473.969 91.8906V91.4102ZM482.102 91.4102C481.363 91.457 480.156 91.4805 479.055 91.4805C477.812 91.4805 476.652 91.457 475.984 91.4102V91.8906C477.613 91.9609 477.93 92.1953 477.93 93.9531V103.457C477.93 105.203 477.613 105.449 475.984 105.52V106C478.27 105.93 481.316 105.93 482.699 105.93C484.246 105.93 486.402 105.93 487.961 106C487.844 104.875 487.797 103.715 487.797 103.164C487.797 102.402 487.82 101.699 487.867 101.195H487.316C487.047 104.371 485.734 105.449 483.613 105.449H482.102C480.473 105.449 480.156 105.203 480.156 103.457V93.9531C480.156 92.1953 480.473 91.9609 482.102 91.8906V91.4102ZM497.793 91.8906C499.012 91.9375 499.68 92.2656 499.68 93.1914C499.68 93.6953 499.492 94.3516 499.094 95.2422L495.508 103.223L491.383 93.9062C491.172 93.4258 491.066 93.0508 491.066 92.7695C491.066 92.125 491.641 91.9375 492.777 91.8906V91.4102C492.109 91.457 490.949 91.4805 489.707 91.4805C488.793 91.4805 487.785 91.457 487.141 91.4102V91.8906C487.645 91.9141 488.266 92.2188 488.793 93.4258L494.406 106.117H494.793L500.055 94.2344C500.723 92.7227 501.133 92.125 502.07 91.8906V91.4102C501.66 91.457 501.016 91.4805 500.453 91.4805C499.598 91.4805 498.273 91.457 497.793 91.4102V91.8906ZM514.34 101.441C514.07 104.441 513.227 105.449 510.883 105.449H509.125C507.496 105.449 507.18 105.203 507.18 103.457V98.8984H509.172C510.836 98.8984 511.094 100.164 511.234 101.348H511.797C511.668 99.8828 511.645 99.3086 511.645 98.6523C511.645 98.3711 511.633 98.0898 511.633 97.75C511.633 97.3164 511.645 96.7773 511.715 95.9688H511.164C511.023 96.8359 510.836 98.418 509.172 98.418H507.18V93.9531C507.18 92.1953 507.496 91.9609 509.125 91.9609H510.883C512.852 91.9609 513.613 92.8516 513.859 95.4883H514.41C514.363 95.125 514.34 94.5742 514.34 94C514.34 93.4961 514.387 92.4414 514.504 91.4102C513.086 91.4805 511.117 91.4805 509.723 91.4805C508.34 91.4805 505.293 91.4805 503.008 91.4102V91.8906C504.637 91.9609 504.953 92.1953 504.953 93.9531V103.457C504.953 105.203 504.637 105.449 503.008 105.52V106C505.293 105.93 508.34 105.93 509.723 105.93C511.27 105.93 513.426 105.93 514.984 106C514.867 104.875 514.82 103.715 514.82 103.164C514.82 102.496 514.844 101.875 514.891 101.441H514.34ZM531.133 104.676C530.746 105.109 530.266 105.496 529.809 105.496C529.328 105.496 529.07 105.086 528.801 103.961L528.273 101.781C527.84 99.9766 526.762 99.4023 525.203 99.1562C524.91 99.1094 524.664 99.0859 524.383 99.0742C528.109 98.6172 529.164 96.625 529.164 95.0547C529.164 92.9922 527.312 91.4336 523.621 91.4336C523.094 91.4336 521.652 91.4805 520.234 91.4805C519.18 91.4805 517.973 91.457 517.305 91.4102V91.8906C518.934 91.9609 519.25 92.1719 519.25 93.9531V103.457C519.25 105.203 518.934 105.449 517.305 105.52V106C517.973 105.953 519.133 105.93 520.375 105.93C521.477 105.93 522.684 105.953 523.422 106V105.52C521.793 105.449 521.477 105.203 521.477 103.457V99.2617H522.848C524.453 99.2617 525.344 99.6367 525.801 101.512L526.539 104.512C526.785 105.449 527.43 106.34 529.012 106.34C530.172 106.34 530.887 105.812 531.461 104.992L531.133 104.676ZM521.477 98.7812V93.9531C521.477 92.3008 521.746 91.8906 523.012 91.8906C525.754 91.8906 526.762 93.0859 526.762 95.3242C526.762 97.2695 526.117 98.7812 523.094 98.7812H521.477ZM538.398 91.4102C537.66 91.457 536.453 91.4805 535.352 91.4805C534.109 91.4805 532.949 91.457 532.281 91.4102V91.8906C533.91 91.9609 534.227 92.1953 534.227 93.9531V103.457C534.227 105.203 533.91 105.449 532.281 105.52V106C532.949 105.953 534.109 105.93 535.352 105.93C536.453 105.93 537.66 105.953 538.398 106V105.52C536.77 105.449 536.453 105.203 536.453 103.457V93.9531C536.453 92.1953 536.77 91.9609 538.398 91.8906V91.4102ZM546.988 91.293H546.602L541.305 103.293C540.824 104.395 540.25 105.285 539.336 105.52V106C539.746 105.953 540.871 105.93 541.422 105.93C542.289 105.93 543.121 105.953 543.602 106V105.52C542.289 105.414 541.738 104.922 541.738 104.102C541.738 103.668 541.879 103.164 542.137 102.566L542.945 100.773H548.805L550.012 103.504C550.234 103.984 550.34 104.359 550.34 104.641C550.34 105.285 549.766 105.473 548.617 105.52V106C549.297 105.953 550.445 105.93 551.699 105.93C552.602 105.93 553.609 105.953 554.266 106V105.52C553.762 105.496 553.129 105.18 552.602 103.984L546.988 91.293ZM548.594 100.293H543.156L545.887 94.1875L548.594 100.293Z" fill="#B48570"/>
<path d="M455.605 100.891C455.605 103.984 455.582 105.285 455.512 106.164H456.062C456.156 105.473 456.285 105.109 456.59 105.109C456.789 105.109 457.023 105.203 457.41 105.449C458.102 105.883 458.992 106.34 460.691 106.34C463.363 106.34 465.613 104.969 465.613 102.262C465.613 100.047 463.715 98.875 461.219 97.5508C459.18 96.4023 457.434 95.7227 457.434 93.9062C457.434 92.5352 458.652 91.5273 460.363 91.5273C463.023 91.5273 464.125 93.6133 464.301 95.6523H464.852C464.852 92.9219 464.898 91.9844 464.969 91.2344H464.418C464.324 91.9141 464.195 92.3008 463.891 92.3008C463.668 92.3008 463.457 92.1953 463.07 91.9609C462.426 91.5273 461.723 91.0703 460.141 91.0703C457.773 91.0703 455.629 92.3242 455.629 94.8203C455.629 97.1641 457.504 98.3477 459.66 99.4492C461.898 100.598 463.48 101.465 463.48 103.141C463.48 105.062 461.969 105.859 460.527 105.859C457.457 105.859 456.355 103.551 456.156 100.891H455.605ZM473.969 91.4102C473.23 91.457 472.023 91.4805 470.922 91.4805C469.68 91.4805 468.52 91.457 467.852 91.4102V91.8906C469.48 91.9609 469.797 92.1953 469.797 93.9531V103.457C469.797 105.203 469.48 105.449 467.852 105.52V106C468.52 105.953 469.68 105.93 470.922 105.93C472.023 105.93 473.23 105.953 473.969 106V105.52C472.34 105.449 472.023 105.203 472.023 103.457V93.9531C472.023 92.1953 472.34 91.9609 473.969 91.8906V91.4102ZM482.102 91.4102C481.363 91.457 480.156 91.4805 479.055 91.4805C477.812 91.4805 476.652 91.457 475.984 91.4102V91.8906C477.613 91.9609 477.93 92.1953 477.93 93.9531V103.457C477.93 105.203 477.613 105.449 475.984 105.52V106C478.27 105.93 481.316 105.93 482.699 105.93C484.246 105.93 486.402 105.93 487.961 106C487.844 104.875 487.797 103.715 487.797 103.164C487.797 102.402 487.82 101.699 487.867 101.195H487.316C487.047 104.371 485.734 105.449 483.613 105.449H482.102C480.473 105.449 480.156 105.203 480.156 103.457V93.9531C480.156 92.1953 480.473 91.9609 482.102 91.8906V91.4102ZM497.793 91.8906C499.012 91.9375 499.68 92.2656 499.68 93.1914C499.68 93.6953 499.492 94.3516 499.094 95.2422L495.508 103.223L491.383 93.9062C491.172 93.4258 491.066 93.0508 491.066 92.7695C491.066 92.125 491.641 91.9375 492.777 91.8906V91.4102C492.109 91.457 490.949 91.4805 489.707 91.4805C488.793 91.4805 487.785 91.457 487.141 91.4102V91.8906C487.645 91.9141 488.266 92.2188 488.793 93.4258L494.406 106.117H494.793L500.055 94.2344C500.723 92.7227 501.133 92.125 502.07 91.8906V91.4102C501.66 91.457 501.016 91.4805 500.453 91.4805C499.598 91.4805 498.273 91.457 497.793 91.4102V91.8906ZM514.34 101.441C514.07 104.441 513.227 105.449 510.883 105.449H509.125C507.496 105.449 507.18 105.203 507.18 103.457V98.8984H509.172C510.836 98.8984 511.094 100.164 511.234 101.348H511.797C511.668 99.8828 511.645 99.3086 511.645 98.6523C511.645 98.3711 511.633 98.0898 511.633 97.75C511.633 97.3164 511.645 96.7773 511.715 95.9688H511.164C511.023 96.8359 510.836 98.418 509.172 98.418H507.18V93.9531C507.18 92.1953 507.496 91.9609 509.125 91.9609H510.883C512.852 91.9609 513.613 92.8516 513.859 95.4883H514.41C514.363 95.125 514.34 94.5742 514.34 94C514.34 93.4961 514.387 92.4414 514.504 91.4102C513.086 91.4805 511.117 91.4805 509.723 91.4805C508.34 91.4805 505.293 91.4805 503.008 91.4102V91.8906C504.637 91.9609 504.953 92.1953 504.953 93.9531V103.457C504.953 105.203 504.637 105.449 503.008 105.52V106C505.293 105.93 508.34 105.93 509.723 105.93C511.27 105.93 513.426 105.93 514.984 106C514.867 104.875 514.82 103.715 514.82 103.164C514.82 102.496 514.844 101.875 514.891 101.441H514.34ZM531.133 104.676C530.746 105.109 530.266 105.496 529.809 105.496C529.328 105.496 529.07 105.086 528.801 103.961L528.273 101.781C527.84 99.9766 526.762 99.4023 525.203 99.1562C524.91 99.1094 524.664 99.0859 524.383 99.0742C528.109 98.6172 529.164 96.625 529.164 95.0547C529.164 92.9922 527.312 91.4336 523.621 91.4336C523.094 91.4336 521.652 91.4805 520.234 91.4805C519.18 91.4805 517.973 91.457 517.305 91.4102V91.8906C518.934 91.9609 519.25 92.1719 519.25 93.9531V103.457C519.25 105.203 518.934 105.449 517.305 105.52V106C517.973 105.953 519.133 105.93 520.375 105.93C521.477 105.93 522.684 105.953 523.422 106V105.52C521.793 105.449 521.477 105.203 521.477 103.457V99.2617H522.848C524.453 99.2617 525.344 99.6367 525.801 101.512L526.539 104.512C526.785 105.449 527.43 106.34 529.012 106.34C530.172 106.34 530.887 105.812 531.461 104.992L531.133 104.676ZM521.477 98.7812V93.9531C521.477 92.3008 521.746 91.8906 523.012 91.8906C525.754 91.8906 526.762 93.0859 526.762 95.3242C526.762 97.2695 526.117 98.7812 523.094 98.7812H521.477ZM538.398 91.4102C537.66 91.457 536.453 91.4805 535.352 91.4805C534.109 91.4805 532.949 91.457 532.281 91.4102V91.8906C533.91 91.9609 534.227 92.1953 534.227 93.9531V103.457C534.227 105.203 533.91 105.449 532.281 105.52V106C532.949 105.953 534.109 105.93 535.352 105.93C536.453 105.93 537.66 105.953 538.398 106V105.52C536.77 105.449 536.453 105.203 536.453 103.457V93.9531C536.453 92.1953 536.77 91.9609 538.398 91.8906V91.4102ZM546.988 91.293H546.602L541.305 103.293C540.824 104.395 540.25 105.285 539.336 105.52V106C539.746 105.953 540.871 105.93 541.422 105.93C542.289 105.93 543.121 105.953 543.602 106V105.52C542.289 105.414 541.738 104.922 541.738 104.102C541.738 103.668 541.879 103.164 542.137 102.566L542.945 100.773H548.805L550.012 103.504C550.234 103.984 550.34 104.359 550.34 104.641C550.34 105.285 549.766 105.473 548.617 105.52V106C549.297 105.953 550.445 105.93 551.699 105.93C552.602 105.93 553.609 105.953 554.266 106V105.52C553.762 105.496 553.129 105.18 552.602 103.984L546.988 91.293ZM548.594 100.293H543.156L545.887 94.1875L548.594 100.293Z" fill="url(#paint6_linear)"/>
<path d="M521.659 63.4931C521.659 68.722 519.923 72.7837 516.449 75.5848C515.181 76.6119 513.82 77.4523 512.365 78.1059C509.83 79.2264 506.919 79.7866 503.68 79.8333C503.539 79.8333 503.398 79.8333 503.304 79.8333C503.304 79.8333 503.304 79.8333 503.257 79.8333L491.615 80.1134V78.2926C492.554 78.246 493.399 78.1526 494.15 78.0592C495.089 77.9192 495.84 77.7791 496.403 77.5457C496.685 77.4523 496.92 77.3122 497.108 77.1722C497.718 76.7987 498.14 76.2385 498.422 75.4915C498.516 75.2114 498.61 74.9312 498.657 74.5578C498.845 73.5773 498.985 72.2234 498.985 70.4961V53.5023C501.614 55.0896 503.821 56.5836 505.558 57.9375C506.215 58.451 506.825 58.9179 507.388 59.4314V70.5894C507.388 71.8966 507.435 73.0171 507.576 73.9041C507.576 73.9975 507.623 74.1376 507.67 74.2776C507.999 75.6315 509.689 76.1918 510.721 75.3047C512.928 73.3906 514.008 70.5427 514.008 66.7145C514.008 63.4931 512.928 60.7853 510.768 58.5444C509.876 57.6107 508.75 56.6303 507.388 55.6032C505.511 54.1559 503.21 52.6153 500.488 50.9813C499.971 50.6544 499.455 50.3743 498.985 50.0475C496.263 48.3668 494.009 46.8262 492.225 45.4723C490.113 43.885 488.423 41.9241 487.062 39.6365C485.747 37.3489 485.09 34.7345 485.09 31.6532C485.09 26.8445 486.639 23.1563 489.737 20.5886C490.817 19.7015 491.944 19.0013 493.211 18.441C495.324 17.4606 497.718 16.9004 500.347 16.807C500.675 16.807 501.004 16.807 501.333 16.807L514.665 16.5736V18.3943C512.693 18.4877 511.238 18.7211 510.205 19.0013C510.111 19.0479 510.017 19.0479 509.876 19.0946C509.36 19.2814 508.891 19.5615 508.562 19.9817C508.233 20.3085 508.046 20.7286 507.858 21.1955C507.717 21.6157 507.576 22.1759 507.482 22.8295C507.341 23.7166 507.295 24.837 507.295 26.1442V41.5507L505.088 40.1968C503.21 39.0296 501.755 38.0959 500.582 37.3022C499.971 36.882 499.408 36.5086 498.892 36.1351V26.0042C498.892 24.3235 498.798 22.9696 498.563 21.9425C498.563 21.9425 498.563 21.8958 498.516 21.8491C497.953 20.2618 495.934 19.7949 494.667 20.9154C494.573 21.0088 494.479 21.1021 494.385 21.1955C492.413 23.0629 491.427 25.4439 491.427 28.3852C491.427 30.5794 491.944 32.4469 492.93 34.0809C493.962 35.6682 495.23 37.0688 496.779 38.2359C497.389 38.6561 498.047 39.1697 498.798 39.6832C500.065 40.5236 501.614 41.504 503.398 42.6244L505.933 44.1651C506.356 44.4452 506.778 44.6786 507.201 44.9587C510.252 46.8729 512.693 48.6003 514.571 50.0942C516.683 51.7749 518.373 53.7357 519.641 55.93C521.002 58.0309 521.659 60.5986 521.659 63.4931ZM503.351 0C503.351 1.6807 498.61 6.396 496.92 6.396C498.61 6.396 503.351 11.1113 503.351 12.792C503.351 11.1113 508.093 6.396 509.783 6.396C508.046 6.396 503.351 1.6807 503.351 0Z" fill="#B48570"/>
<path d="M521.659 63.4931C521.659 68.722 519.923 72.7837 516.449 75.5848C515.181 76.6119 513.82 77.4523 512.365 78.1059C509.83 79.2264 506.919 79.7866 503.68 79.8333C503.539 79.8333 503.398 79.8333 503.304 79.8333C503.304 79.8333 503.304 79.8333 503.257 79.8333L491.615 80.1134V78.2926C492.554 78.246 493.399 78.1526 494.15 78.0592C495.089 77.9192 495.84 77.7791 496.403 77.5457C496.685 77.4523 496.92 77.3122 497.108 77.1722C497.718 76.7987 498.14 76.2385 498.422 75.4915C498.516 75.2114 498.61 74.9312 498.657 74.5578C498.845 73.5773 498.985 72.2234 498.985 70.4961V53.5023C501.614 55.0896 503.821 56.5836 505.558 57.9375C506.215 58.451 506.825 58.9179 507.388 59.4314V70.5894C507.388 71.8966 507.435 73.0171 507.576 73.9041C507.576 73.9975 507.623 74.1376 507.67 74.2776C507.999 75.6315 509.689 76.1918 510.721 75.3047C512.928 73.3906 514.008 70.5427 514.008 66.7145C514.008 63.4931 512.928 60.7853 510.768 58.5444C509.876 57.6107 508.75 56.6303 507.388 55.6032C505.511 54.1559 503.21 52.6153 500.488 50.9813C499.971 50.6544 499.455 50.3743 498.985 50.0475C496.263 48.3668 494.009 46.8262 492.225 45.4723C490.113 43.885 488.423 41.9241 487.062 39.6365C485.747 37.3489 485.09 34.7345 485.09 31.6532C485.09 26.8445 486.639 23.1563 489.737 20.5886C490.817 19.7015 491.944 19.0013 493.211 18.441C495.324 17.4606 497.718 16.9004 500.347 16.807C500.675 16.807 501.004 16.807 501.333 16.807L514.665 16.5736V18.3943C512.693 18.4877 511.238 18.7211 510.205 19.0013C510.111 19.0479 510.017 19.0479 509.876 19.0946C509.36 19.2814 508.891 19.5615 508.562 19.9817C508.233 20.3085 508.046 20.7286 507.858 21.1955C507.717 21.6157 507.576 22.1759 507.482 22.8295C507.341 23.7166 507.295 24.837 507.295 26.1442V41.5507L505.088 40.1968C503.21 39.0296 501.755 38.0959 500.582 37.3022C499.971 36.882 499.408 36.5086 498.892 36.1351V26.0042C498.892 24.3235 498.798 22.9696 498.563 21.9425C498.563 21.9425 498.563 21.8958 498.516 21.8491C497.953 20.2618 495.934 19.7949 494.667 20.9154C494.573 21.0088 494.479 21.1021 494.385 21.1955C492.413 23.0629 491.427 25.4439 491.427 28.3852C491.427 30.5794 491.944 32.4469 492.93 34.0809C493.962 35.6682 495.23 37.0688 496.779 38.2359C497.389 38.6561 498.047 39.1697 498.798 39.6832C500.065 40.5236 501.614 41.504 503.398 42.6244L505.933 44.1651C506.356 44.4452 506.778 44.6786 507.201 44.9587C510.252 46.8729 512.693 48.6003 514.571 50.0942C516.683 51.7749 518.373 53.7357 519.641 55.93C521.002 58.0309 521.659 60.5986 521.659 63.4931ZM503.351 0C503.351 1.6807 498.61 6.396 496.92 6.396C498.61 6.396 503.351 11.1113 503.351 12.792C503.351 11.1113 508.093 6.396 509.783 6.396C508.046 6.396 503.351 1.6807 503.351 0Z" fill="url(#paint7_linear)"/>
<defs>
<linearGradient id="paint0_linear" x1="-4.69364e-07" y1="26" x2="29.5" y2="88" gradientUnits="userSpaceOnUse">
<stop stop-color="#937576"/>
<stop offset="1" stop-color="#4C526A"/>
</linearGradient>
<linearGradient id="paint1_linear" x1="82" y1="-2.5" x2="243.5" y2="111.5" gradientUnits="userSpaceOnUse">
<stop stop-color="#937576"/>
<stop offset="1" stop-color="#4C526A"/>
</linearGradient>
<linearGradient id="paint2_linear" x1="104.5" y1="18" x2="104.5" y2="86" gradientUnits="userSpaceOnUse">
<stop stop-color="#937576"/>
<stop offset="1" stop-color="#4C526A"/>
</linearGradient>
<linearGradient id="paint3_linear" x1="258.5" y1="17" x2="258.5" y2="86" gradientUnits="userSpaceOnUse">
<stop stop-color="#937576"/>
<stop offset="1" stop-color="#4C526A"/>
</linearGradient>
<linearGradient id="paint4_linear" x1="402.5" y1="14" x2="402.5" y2="83" gradientUnits="userSpaceOnUse">
<stop stop-color="#937576"/>
<stop offset="1" stop-color="#4C526A"/>
</linearGradient>
<linearGradient id="paint5_linear" x1="326.501" y1="36" x2="326.501" y2="90.9986" gradientUnits="userSpaceOnUse">
<stop stop-color="#937576"/>
<stop offset="1" stop-color="#4C526A"/>
</linearGradient>
<linearGradient id="paint6_linear" x1="510" y1="80" x2="510" y2="105.846" gradientUnits="userSpaceOnUse">
<stop stop-color="#937576"/>
<stop offset="1" stop-color="#4C526A"/>
</linearGradient>
<linearGradient id="paint7_linear" x1="503.375" y1="0" x2="503.375" y2="80.1134" gradientUnits="userSpaceOnUse">
<stop stop-color="#937576"/>
<stop offset="1" stop-color="#4C526A"/>
</linearGradient>
</defs>
</svg>
