<?xml version="1.0" encoding="utf-8"?><svg xmlns="http://www.w3.org/2000/svg" xmlns:xlink="http://www.w3.org/1999/xlink"><symbol viewBox="0 0 165 127" id="logo1" xmlns="http://www.w3.org/2000/svg"><path d="M2.609 116.917c0 5.503-.038 7.75-.152 9.35h.895c.152-1.124.361-1.714.857-1.714.323 0 .704.152 1.333.552 1.123.705 2.57 1.447 5.332 1.447 4.532 0 8.283-2.456 8.283-7.407 0-4.19-2.97-6.247-7.027-8.779-3.504-2.19-6.55-3.599-6.55-7.141 0-2.685 1.98-4.533 4.76-4.533 4.323 0 6.113 3.79 6.399 7.503h.895c0-4.913.076-6.589.19-7.96h-.895c-.152 1.124-.362 1.714-.857 1.714-.362 0-.704-.152-1.333-.552-1.047-.705-2.19-1.447-4.76-1.447-3.847 0-7.332 2.152-7.332 6.76 0 4.399 3.237 6.513 6.95 8.741 3.619 2.171 6.075 3.961 6.075 7.122 0 3.675-2.532 5.198-5.065 5.198-4.99 0-6.78-4.132-7.103-8.854h-.895zm30.03-14.625c-1.2.076-3.16.114-4.95.114-2.02 0-3.904-.038-4.99-.114v.78c2.647.115 3.161.495 3.161 3.352v15.444c0 2.837-.514 3.237-3.16 3.351V126c1.085-.076 2.97-.114 4.989-.114 1.79 0 3.75.038 4.95.114v-.781c-2.646-.114-3.16-.514-3.16-3.351v-15.444c0-2.857.514-3.237 3.16-3.352v-.78zm13.216 0c-1.2.076-3.16.114-4.95.114-2.02 0-3.904-.038-4.99-.114v.78c2.647.115 3.161.495 3.161 3.352v15.444c0 2.837-.514 3.237-3.161 3.351V126c3.713-.114 8.665-.114 10.912-.114 2.513 0 6.017 0 8.55.114-.19-1.828-.267-3.713-.267-4.608 0-1.238.038-2.381.115-3.2h-.895c-.438 5.161-2.571 6.913-6.018 6.913h-2.456c-2.648 0-3.162-.4-3.162-3.237v-15.444c0-2.857.514-3.237 3.161-3.352v-.78zm25.499.78c1.98.076 3.066.61 3.066 2.114 0 .819-.305 1.885-.952 3.333l-5.827 12.968-6.704-15.139c-.342-.781-.514-1.39-.514-1.848 0-1.047.933-1.352 2.78-1.428v-.78c-1.085.076-2.97.114-4.989.114-1.485 0-3.123-.038-4.17-.114v.78c.819.038 1.828.533 2.685 2.495l9.122 20.623h.628l8.55-19.309c1.086-2.457 1.752-3.428 3.276-3.809v-.78c-.667.076-1.714.114-2.628.114-1.39 0-3.542-.038-4.323-.114v.78zm26.889 15.52c-.438 4.875-1.81 6.513-5.618 6.513h-2.856c-2.647 0-3.162-.4-3.162-3.237v-7.408h3.238c2.704 0 3.123 2.057 3.351 3.98h.914c-.21-2.38-.247-3.314-.247-4.38 0-.457-.02-.914-.02-1.466 0-.705.02-1.581.134-2.895h-.895c-.228 1.409-.533 3.98-3.237 3.98h-3.238v-7.255c0-2.857.515-3.237 3.162-3.237h2.856c3.2 0 4.437 1.447 4.837 5.731h.895c-.076-.59-.114-1.485-.114-2.418 0-.819.076-2.533.266-4.208-2.304.114-5.503.114-7.77.114-2.246 0-7.198 0-10.91-.114v.78c2.646.115 3.16.495 3.16 3.352v15.444c0 2.837-.514 3.237-3.16 3.351V126c3.713-.114 8.664-.114 10.91-.114 2.514 0 6.018 0 8.551.114-.19-1.828-.267-3.713-.267-4.608 0-1.086.038-2.095.115-2.8h-.895zm27.288 5.256c-.628.705-1.409 1.333-2.152 1.333-.78 0-1.199-.666-1.637-2.494l-.857-3.542c-.705-2.933-2.457-3.866-4.989-4.266a10.934 10.934 0 0 0-1.334-.133c6.056-.743 7.77-3.98 7.77-6.532 0-3.352-3.009-5.884-9.007-5.884-.857 0-3.2.076-5.504.076-1.714 0-3.675-.038-4.76-.114v.78c2.647.115 3.161.457 3.161 3.352v15.444c0 2.837-.514 3.237-3.161 3.351V126c1.085-.076 2.97-.114 4.989-.114 1.79 0 3.751.038 4.951.114v-.781c-2.647-.114-3.161-.514-3.161-3.351v-6.818h2.228c2.609 0 4.056.61 4.799 3.657l1.199 4.875c.4 1.523 1.448 2.97 4.018 2.97 1.886 0 3.047-.857 3.98-2.19l-.533-.514zm-15.691-9.578v-7.846c0-2.685.438-3.352 2.494-3.352 4.457 0 6.094 1.943 6.094 5.58 0 3.161-1.047 5.618-5.96 5.618h-2.628zm27.498-11.978c-1.2.076-3.161.114-4.951.114-2.019 0-3.904-.038-4.99-.114v.78c2.647.115 3.162.495 3.162 3.352v15.444c0 2.837-.515 3.237-3.162 3.351V126c1.086-.076 2.971-.114 4.99-.114 1.79 0 3.751.038 4.951.114v-.781c-2.647-.114-3.161-.514-3.161-3.351v-15.444c0-2.857.514-3.237 3.161-3.352v-.78zm13.958-.191h-.628l-8.607 19.5c-.781 1.79-1.714 3.237-3.2 3.618V126c.667-.076 2.495-.114 3.39-.114 1.409 0 2.761.038 3.542.114v-.781c-2.133-.171-3.028-.971-3.028-2.304 0-.705.229-1.523.648-2.495l1.314-2.913h9.521l1.961 4.437c.362.781.534 1.39.534 1.847 0 1.047-.933 1.352-2.8 1.428V126c1.105-.076 2.971-.114 5.009-.114 1.466 0 3.104.038 4.17.114v-.781c-.819-.038-1.847-.552-2.704-2.494l-9.122-20.624zm2.609 14.625h-8.836l4.437-9.921 4.399 9.921zm-57.112-54.82c0 5.098-1.694 9.058-5.08 11.79a18.058 18.058 0 0 1-3.983 2.457c-2.471 1.093-5.309 1.639-8.467 1.684h-.412l-11.351.274v-1.776c.915-.045 1.74-.136 2.471-.227.916-.137 1.648-.273 2.197-.501a2.44 2.44 0 0 0 .687-.364c.595-.364 1.007-.91 1.281-1.639.092-.273.184-.546.23-.91.183-.956.32-2.276.32-3.96v-16.57c2.563 1.548 4.714 3.005 6.408 4.325.64.5 1.236.956 1.785 1.457v10.879c0 1.274.045 2.367.183 3.231 0 .092.046.228.091.365.32 1.32 1.968 1.866 2.975 1.001 2.152-1.866 3.204-4.643 3.204-8.375 0-3.141-1.052-5.781-3.158-7.966-.87-.91-1.968-1.867-3.295-2.868-1.831-1.411-4.074-2.913-6.729-4.506-.503-.319-1.007-.592-1.464-.91-2.655-1.64-4.852-3.141-6.591-4.461-2.06-1.548-3.708-3.46-5.035-5.69-1.282-2.23-1.922-4.78-1.922-7.784 0-4.689 1.51-8.285 4.531-10.788a14.456 14.456 0 0 1 3.387-2.094c2.06-.956 4.394-1.502 6.957-1.593h.961l13-.228v1.776c-1.923.09-3.342.318-4.349.591-.092.046-.183.046-.32.091-.504.182-.962.456-1.282.865-.32.319-.504.728-.687 1.184-.137.41-.274.956-.366 1.593-.137.865-.183 1.957-.183 3.232v15.02l-2.151-1.32a138.809 138.809 0 0 1-4.394-2.821c-.595-.41-1.144-.774-1.648-1.138v-9.878c0-1.639-.091-2.959-.32-3.96 0 0 0-.046-.046-.091-.55-1.548-2.517-2.003-3.753-.91l-.275.273c-1.922 1.82-2.883 4.142-2.883 7.01 0 2.139.503 3.96 1.464 5.553a15.813 15.813 0 0 0 3.754 4.051c.595.41 1.235.91 1.968 1.411 1.236.82 2.746 1.775 4.485 2.868l2.472 1.502c.412.273.824.5 1.236.774 2.975 1.866 5.355 3.55 7.186 5.007 2.06 1.639 3.707 3.55 4.943 5.69 1.327 2.048 1.968 4.552 1.968 7.374zM78.943 0c0 1.639-4.623 6.236-6.271 6.236 1.648 0 6.27 4.598 6.27 6.236 0-1.638 4.623-6.236 6.271-6.236-1.694 0-6.27-4.597-6.27-6.236z"/></symbol><symbol viewBox="0 0 170 127" id="logo2" xmlns="http://www.w3.org/2000/svg"><path d="M84.758 53.163c2.873 0 5.202-2.32 5.202-5.181 0-2.862-2.33-5.181-5.202-5.181-2.873 0-5.203 2.32-5.203 5.18 0 2.862 2.33 5.182 5.203 5.182z"/><path d="M112.944 55.328a27.563 27.563 0 0 1-4.97 10.285 44.801 44.801 0 0 1-2.485 2.938 31.58 31.58 0 0 1-8.696 5.954 31.9 31.9 0 0 1-4.581 1.547c-2.485.696-5.047.85-7.61.928-1.32-.078-2.562-.078-3.804-.31-.621-.077-1.243-.154-1.864-.309l-1.863-.464a12.106 12.106 0 0 1-1.786-.618c-.621-.232-1.165-.464-1.786-.696-1.165-.619-2.33-1.083-3.339-1.779-2.174-1.314-4.115-3.016-5.901-4.794l-1.242-1.392c-.389-.464-.777-1.005-1.165-1.547-.777-1.005-1.398-2.165-2.02-3.17-.31-.542-.543-1.16-.776-1.701l-.388-.851-.31-.928-.621-1.779-.466-1.855-.389-1.083-.077-.928-.233-1.856-.078-1.856v-.928c0-.309.078-.618.078-1.005a16.58 16.58 0 0 1 2.252-7.423c2.64-4.485 7.22-7.656 12.268-8.506 4.97-.774 10.25.773 13.82 4.098a16.468 16.468 0 0 1 4.116 5.877 16.038 16.038 0 0 1 1.087 6.882c-.31-4.562-2.717-8.815-6.29-11.367-1.785-1.237-3.804-2.165-5.9-2.552a15.64 15.64 0 0 0-6.29.155c-4.037.928-7.532 3.789-9.24 7.423-.854 1.779-1.32 3.79-1.397 5.722v.774l.077.773.156 1.547.31 1.546.156.773.232.774.466 1.469.621 1.47.311.695.388.696.7 1.392c1.086 1.779 2.25 3.48 3.726 4.872a22.656 22.656 0 0 0 4.892 3.711c.854.542 1.786.928 2.718 1.392.465.232.931.31 1.475.542.466.154.932.309 1.475.464 4.348 1.237 9.085 1.005 13.356-.387.155-.077.388-.077.543-.155.388-.154.699-.232 1.01-.386l.931-.387.466-.232c2.019-1.005 3.96-2.243 5.591-3.866.155-.155.388-.31.543-.542.544-.541 1.01-1.082 1.553-1.7 2.097-2.553 3.727-5.491 4.504-8.662.621-1.933.776-4.02.776-6.031-.078-1.005 0-2.01-.233-3.016-.077-.464-.155-1.005-.233-1.47l-.388-1.468a4.66 4.66 0 0 0-.466-1.47c-.155-.464-.31-.928-.543-1.469-.466-.928-.777-1.856-1.398-2.706-1.009-1.779-2.329-3.403-3.727-4.872-1.475-1.47-3.184-2.63-4.892-3.712l-1.397-.696-.7-.386-.698-.31-1.476-.618-1.552-.619-.777-.232-.776-.155-1.553-.309-3.34-.232c-1.397-.155-2.794-.464-4.037-1.082-1.242-.542-2.407-1.392-3.416-2.32-2.02-1.856-3.261-4.408-3.65-7.114-.388-2.63.156-5.413 1.476-7.656a11.734 11.734 0 0 1 5.823-4.949c2.407-.928 5.047-1.083 7.454-.31 2.407.697 4.426 2.243 5.824 4.254 1.32 1.856 1.941 4.098 1.863 6.34v.387c-.31-4.64-3.882-8.506-8.075-9.202-2.096-.386-4.27-.077-6.056.85a9.721 9.721 0 0 0-4.116 4.177c-.854 1.778-1.087 3.789-.62 5.645.387 1.855 1.397 3.557 2.872 4.717a8.489 8.489 0 0 0 5.047 1.933l3.494.077 1.864.232.931.077.932.232 1.864.464 1.786.619.931.31.855.386c.543.232 1.164.541 1.708.773 1.087.619 2.252 1.238 3.183 2.01.544.387 1.01.697 1.553 1.16l1.398 1.238c1.863 1.778 3.494 3.712 4.814 5.877.699 1.082 1.242 2.242 1.786 3.325.233.619.466 1.16.699 1.779.233.618.466 1.16.621 1.778a27.61 27.61 0 0 1 .311 15.079z"/><path d="M112.866 55.328a29.096 29.096 0 0 1-4.97 10.362 45.099 45.099 0 0 1-2.484 2.938 31.6 31.6 0 0 1-8.697 5.955 31.898 31.898 0 0 1-4.58 1.546c-2.486.696-5.048.85-7.61.928-1.32-.077-2.563-.077-3.805-.31-.621-.076-1.242-.154-1.864-.308l-1.863-.464a12.108 12.108 0 0 1-1.786-.619c-.621-.232-1.165-.464-1.786-.696-1.165-.619-2.33-1.083-3.339-1.778-2.174-1.315-4.115-3.016-5.9-4.795l-1.243-1.392a26.949 26.949 0 0 1-1.165-1.546c-.776-1.006-1.398-2.166-2.019-3.17-.31-.542-.543-1.16-.776-1.702l-.388-.85-.311-.928-.621-1.78-.466-1.855-.31-1.16-.078-.928-.233-1.856-.078-1.855v-.928c0-.31.078-.62.078-1.006a16.58 16.58 0 0 1 2.252-7.423c2.64-4.485 7.22-7.656 12.268-8.506 4.97-.774 10.25.773 13.82 4.098a16.468 16.468 0 0 1 4.116 5.877 16.038 16.038 0 0 1 1.087 6.882h-.698c-.234-4.407-2.563-8.428-5.902-10.903-3.338-2.474-7.764-3.325-11.647-2.397-3.882.928-7.299 3.634-9.007 7.114a14.04 14.04 0 0 0-1.397 5.568v.695l.077.774.078 1.546.233 1.547.155.773.233.773.388 1.47.544 1.392.31.696.389.696.698 1.391c1.087 1.779 2.252 3.403 3.727 4.872 1.476 1.47 3.029 2.707 4.815 3.712.854.541 1.785.928 2.717 1.392.466.232.932.309 1.398.541.466.155.932.387 1.475.464l1.476.387c.465.077 1.009.154 1.475.232 1.01.232 2.019.154 3.028.232 1.553 0 3.028-.155 4.581-.387a10.3 10.3 0 0 0 1.476-.387c.465-.077.854-.232 1.242-.386.155-.078.388-.078.543-.155.389-.155.7-.232 1.01-.387.31-.154.62-.232.931-.386l.466-.232c2.02-1.005 3.96-2.32 5.591-3.867.155-.154.388-.309.544-.54.543-.542 1.009-1.084 1.552-1.702 2.097-2.552 3.728-5.49 4.504-8.66.621-1.934.776-4.022.776-6.032-.077-1.006 0-2.011-.232-3.016-.078-.464-.156-1.006-.233-1.47l-.389-1.469a4.633 4.633 0 0 0-.466-1.469c-.155-.464-.31-1.005-.543-1.47-.466-.927-.777-1.855-1.398-2.706-1.009-1.778-2.329-3.402-3.727-4.871-1.475-1.47-3.183-2.707-4.892-3.79l-1.397-.695-.699-.387-.699-.31-1.475-.618-1.475-.464-.777-.232-.776-.154-1.553-.31-3.34-.232c-1.397-.155-2.717-.464-3.96-1.082-1.241-.542-2.406-1.392-3.338-2.32-2.019-1.856-3.261-4.408-3.65-7.037-.388-2.63.156-5.336 1.476-7.656a11.734 11.734 0 0 1 5.824-4.949C82.583.271 85.223.116 87.553.89c2.407.696 4.426 2.243 5.823 4.176a10.236 10.236 0 0 1 1.864 6.263v.387c-.233-4.64-3.882-8.583-8.075-9.28a9.832 9.832 0 0 0-6.134.851 9.28 9.28 0 0 0-4.193 4.253 9.083 9.083 0 0 0-.7 5.723c.39 1.855 1.476 3.557 2.874 4.794 1.475 1.237 3.26 1.856 5.047 1.933l3.494.078 1.864.232.931.154.932.232 1.864.464 1.785.619.855.309.854.387c.543.232 1.164.54 1.708.773 1.087.619 2.252 1.237 3.183 2.01.466.387 1.01.696 1.476 1.16l1.397 1.238c1.786 1.778 3.494 3.711 4.814 5.877.699 1.082 1.243 2.242 1.786 3.325.233.618.466 1.16.699 1.778.233.619.466 1.16.621 1.779 1.786 4.64 1.864 9.898.544 14.924z"/><path d="M92.445 57.261c-1.398.078-2.407.232-3.028.464a2.214 2.214 0 0 0-1.32 1.315c-.233.618-.311 1.701-.311 3.17V85.1c0 1.469.078 2.551.31 3.17a2.214 2.214 0 0 0 1.32 1.314c.622.232 1.631.387 3.029.464v1.16c-1.786-.077-4.27-.154-7.377-.154-3.339 0-5.823.077-7.454.154v-1.082c1.398-.078 2.407-.232 3.028-.464a2.214 2.214 0 0 0 1.32-1.315c.233-.619.31-1.701.31-3.17v-22.89c0-1.469-.077-2.551-.31-3.17a2.214 2.214 0 0 0-1.32-1.314c-.62-.232-1.63-.387-3.028-.464V56.1c1.63.078 4.115.155 7.454.155 3.106 0 5.59-.077 7.377-.155v1.16zM11.226 97.317c.699.232 1.397.619 2.174 1.16.621.387 1.087.541 1.398.541.233 0 .466-.154.543-.464.155-.31.233-.773.31-1.392h.933c-.156 1.547-.233 4.331-.233 8.352h-.932c-.155-2.243-.777-4.099-1.941-5.568-1.165-1.47-2.718-2.242-4.814-2.242-1.476 0-2.718.464-3.65 1.314-.932.85-1.398 2.011-1.398 3.403 0 1.005.233 1.933.7 2.706.465.773 1.086 1.392 1.863 1.933a57.067 57.067 0 0 0 3.183 2.088l1.165.773c1.708 1.083 3.106 2.011 4.115 2.784 1.01.774 1.786 1.701 2.407 2.784.622 1.005.932 2.243.932 3.634 0 2.475-.854 4.408-2.485 5.723-1.63 1.314-3.727 2.01-6.289 2.01-1.32 0-2.407-.154-3.261-.386-.854-.31-1.63-.619-2.407-1.083-.621-.387-1.087-.541-1.398-.541-.233 0-.466.154-.543.464-.156.309-.233.773-.311 1.392H.355c.078-1.47.156-4.795.156-9.821h.931c.156 2.784.854 5.026 2.02 6.727 1.164 1.702 2.95 2.552 5.434 2.552 1.476 0 2.718-.464 3.805-1.392 1.01-.928 1.553-2.242 1.553-4.098 0-1.547-.543-2.861-1.553-3.866-1.01-1.083-2.64-2.243-4.892-3.635-1.63-1.005-2.95-1.856-3.96-2.629-1.009-.773-1.785-1.701-2.484-2.784-.621-1.082-.932-2.32-.932-3.789 0-2.32.776-4.02 2.252-5.258 1.475-1.237 3.339-1.856 5.513-1.856 1.397.077 2.33.155 3.028.464zm21.042 4.949c-1.01.077-1.708.155-2.174.309a1.398 1.398 0 0 0-.932.928c-.155.464-.233 1.238-.233 2.243v16.239c0 1.005.078 1.778.233 2.242.156.464.466.774.932.928.466.155 1.165.309 2.174.309v.851a84.701 84.701 0 0 0-5.202-.155c-2.33 0-4.115.078-5.28.155v-.851c1.01-.077 1.708-.154 2.174-.309.466-.154.776-.464.932-.928.155-.464.233-1.237.233-2.242v-16.239c0-1.005-.078-1.779-.233-2.243a1.398 1.398 0 0 0-.932-.928c-.466-.154-1.165-.309-2.174-.309v-.85c1.165.077 2.873.154 5.28.154 2.174 0 3.96-.077 5.202-.154v.85zm13.977 0c-1.01.077-1.709.154-2.174.309a1.398 1.398 0 0 0-.932.928c-.156.464-.233 1.237-.233 2.243v16.238c0 1.006.078 1.779.233 2.243.155.464.466.773.932.928.465.155 1.164.232 2.174.232h2.562c1.864 0 3.339-.541 4.426-1.701 1.087-1.083 1.708-2.939 1.941-5.568h.932a35.401 35.401 0 0 0-.155 3.325c0 1.392.077 3.016.31 4.794-1.786-.077-4.814-.154-9.007-.154-5.047 0-8.93.077-11.492.154v-.85c1.01-.077 1.709-.155 2.175-.309.465-.155.776-.464.931-.928.155-.464.233-1.238.233-2.243v-16.239c0-1.005-.078-1.778-.233-2.242a1.396 1.396 0 0 0-.931-.928c-.466-.155-1.165-.309-2.175-.309v-.851c1.165.077 2.873.155 5.28.155 2.175 0 3.96-.078 5.203-.155v.928zm34.165-.773v.85a2.987 2.987 0 0 0-1.864 1.16c-.466.542-1.01 1.547-1.63 2.862l-9.008 20.259h-.62l-9.63-21.651c-.776-1.702-1.707-2.552-2.872-2.63v-.85c1.087.077 2.562.155 4.426.155 2.33 0 4.115-.078 5.28-.155v.85c-1.01.078-1.786.155-2.252.387-.466.232-.699.619-.699 1.083 0 .464.156 1.082.544 1.933l7.066 15.852 6.134-13.61c.699-1.469 1.01-2.629 1.01-3.479 0-.774-.234-1.315-.777-1.624-.544-.31-1.32-.542-2.485-.619v-.85c.854.077 2.33.154 4.581.154 1.242 0 2.174 0 2.795-.077zm22.129 24.899c-1.786-.077-4.814-.154-9.007-.154-5.047 0-8.93.077-11.492.154v-.85c1.01-.078 1.708-.155 2.174-.31.466-.154.777-.464.932-.928.155-.464.233-1.237.233-2.242v-16.239c0-1.005-.078-1.779-.233-2.242a1.396 1.396 0 0 0-.932-.928c-.466-.155-1.165-.31-2.174-.31v-.85c2.64.077 6.445.154 11.492.154 3.805 0 6.6-.077 8.153-.154-.156 1.624-.311 3.093-.311 4.407 0 1.083.078 1.934.155 2.552h-.931c-.156-2.242-.7-3.789-1.398-4.717-.776-.85-2.019-1.314-3.65-1.314h-3.028c-1.01 0-1.708.077-2.174.232a1.396 1.396 0 0 0-.931.928c-.156.463-.234 1.237-.234 2.242v7.656H92.6c.854 0 1.553-.232 2.019-.696.466-.464.776-.928.932-1.47.155-.541.31-1.237.465-2.01h.932c-.077.928-.155 1.933-.155 3.016v1.546c0 1.083.078 2.629.233 4.562h-.932c-.155-1.314-.466-2.319-.932-3.093-.466-.773-1.32-1.082-2.562-1.082h-3.416v7.81c0 1.005.077 1.778.233 2.242.155.464.465.774.931.928.466.155 1.165.232 2.174.232h3.029c1.397 0 2.484-.232 3.26-.618.777-.464 1.398-1.16 1.787-2.088.388-.928.698-2.32.854-4.099h.932a27.824 27.824 0 0 0-.156 2.939c.078 1.315.156 2.938.311 4.794zm28.263-1.778c-.543.773-1.087 1.314-1.786 1.701a4.828 4.828 0 0 1-2.407.619c-2.329 0-3.727-1.006-4.27-3.094l-1.243-5.103c-.388-1.547-.931-2.552-1.708-3.093-.776-.542-1.863-.774-3.339-.774h-2.329v7.192c0 1.005.078 1.778.233 2.242.155.464.466.774.932.928.466.155 1.164.31 2.174.31v.85a84.866 84.866 0 0 0-5.203-.154c-2.329 0-4.115.077-5.28.154v-.85c1.01-.078 1.709-.155 2.175-.31.465-.154.776-.464.931-.928.156-.464.233-1.237.233-2.242v-16.239c0-1.005-.077-1.779-.233-2.242a1.396 1.396 0 0 0-.931-.928c-.466-.155-1.165-.31-2.175-.31v-.85c1.165.077 2.796.154 5.048.154l4.192-.077c.466 0 1.01-.077 1.631-.077 3.106 0 5.435.541 7.066 1.701 1.631 1.16 2.485 2.629 2.485 4.485 0 1.546-.622 3.016-1.942 4.33-1.242 1.315-3.338 2.165-6.289 2.475.544.077 1.009.077 1.398.154 1.475.232 2.64.619 3.416 1.315.854.619 1.475 1.701 1.786 3.17l.932 3.712c.233.928.466 1.624.699 2.011.233.386.621.618 1.009.618.699 0 1.475-.464 2.252-1.392l.543.542zm-16.15-22.039c-.388.155-.621.542-.777 1.006-.155.463-.233 1.237-.233 2.242v8.197h2.718c2.407 0 4.038-.542 4.969-1.547.855-1.005 1.32-2.474 1.32-4.33 0-1.933-.465-3.403-1.475-4.408-1.009-1.005-2.64-1.469-4.892-1.469-.698 0-1.242.077-1.63.309zm28.03-.309c-1.009.077-1.708.155-2.174.309a1.4 1.4 0 0 0-.932.928c-.155.464-.232 1.238-.232 2.243v16.239c0 1.005.077 1.778.232 2.242.156.464.466.774.932.928.466.155 1.165.309 2.174.309v.851a84.685 84.685 0 0 0-5.202-.155c-2.329 0-4.115.078-5.28.155v-.851c1.009-.077 1.708-.154 2.174-.309.466-.154.777-.464.932-.928.155-.464.233-1.237.233-2.242v-16.239c0-1.005-.078-1.779-.233-2.243a1.397 1.397 0 0 0-.932-.928c-.466-.154-1.165-.309-2.174-.309v-.85c1.165.077 2.873.154 5.28.154 2.174 0 3.96-.077 5.202-.154v.85zm27.177 23.276v.85a61.74 61.74 0 0 0-4.426-.155c-2.329 0-4.115.078-5.28.155v-.85c1.009-.078 1.786-.155 2.252-.387.466-.232.699-.619.699-1.083 0-.464-.156-1.082-.544-1.933l-2.096-4.64h-10.017l-1.398 3.094c-.465 1.082-.698 1.933-.698 2.629s.233 1.237.776 1.624c.544.386 1.32.618 2.485.773v.85a41.558 41.558 0 0 0-3.727-.154c-1.709 0-2.873.077-3.572.154v-.85c.776-.155 1.398-.619 1.863-1.237.544-.619 1.01-1.47 1.476-2.552l9.084-20.492h.622l9.628 21.652c.776 1.624 1.708 2.474 2.873 2.552zm-9.706-8.893l-4.659-10.439-4.659 10.439h9.318z"/></symbol><symbol viewBox="0 0 157 126" id="logo3" xmlns="http://www.w3.org/2000/svg"><path d="M9.972 98.336c.68.227 1.286.605 1.968 1.06.53.378.984.53 1.286.53.227 0 .379-.152.53-.38.151-.302.227-.68.303-1.286h.908c-.151 1.438-.227 4.088-.227 7.722h-.908c-.152-2.044-.757-3.785-1.741-5.224-1.06-1.438-2.498-2.12-4.466-2.12-1.362 0-2.497.379-3.33 1.212-.832.833-1.286 1.892-1.286 3.18 0 .984.227 1.817.68 2.498a7.564 7.564 0 0 0 1.666 1.817c.681.53 1.665 1.136 2.952 1.968l1.135.682a51.624 51.624 0 0 1 3.784 2.574 7.963 7.963 0 0 1 2.195 2.574c.53.984.833 2.12.833 3.407 0 2.271-.757 4.088-2.27 5.375-1.515 1.287-3.482 1.893-5.753 1.893-1.211 0-2.195-.152-2.952-.379a8.357 8.357 0 0 1-2.195-1.06c-.53-.378-.984-.53-1.286-.53-.227 0-.379.152-.53.379-.152.303-.227.681-.303 1.287H.057c.076-1.363.151-4.467.151-9.161h.908c.152 2.574.833 4.618 1.893 6.208 1.06 1.59 2.724 2.423 4.995 2.423 1.362 0 2.498-.454 3.482-1.287.983-.833 1.438-2.12 1.438-3.785 0-1.439-.455-2.65-1.438-3.634-.984-.985-2.422-2.12-4.542-3.332a42.755 42.755 0 0 1-3.633-2.422c-.908-.682-1.665-1.59-2.27-2.574-.606-.985-.908-2.196-.908-3.483 0-2.12.68-3.785 2.043-4.921C3.538 98.41 5.28 97.88 7.247 97.88c1.211.076 2.044.228 2.725.455zm19.451 4.618c-.908.076-1.59.151-1.968.303-.454.151-.68.454-.832.908-.152.454-.227 1.136-.227 2.12v14.99c0 .985.075 1.666.227 2.12.151.454.454.757.832.909.454.151 1.06.227 1.968.303v.757a73.503 73.503 0 0 0-4.844-.152c-2.195 0-3.784 0-4.844.152v-.757c.909-.076 1.59-.152 1.968-.303.454-.152.681-.455.833-.909.151-.454.227-1.135.227-2.12v-15.066c0-.984-.076-1.665-.227-2.119-.152-.455-.454-.758-.833-.909-.454-.151-1.06-.227-1.968-.303v-.757c1.06.076 2.65.152 4.844.152 2.044 0 3.633 0 4.844-.152v.833zm12.867 0c-.908.076-1.59.151-1.968.303-.454.151-.681.454-.833.908-.151.454-.227 1.136-.227 2.12v14.99c0 .985.076 1.666.227 2.12.152.454.455.682.833.833.454.151 1.06.227 1.968.227h2.422c1.74 0 3.103-.53 4.087-1.59.984-1.06 1.59-2.725 1.74-5.148h.909a31.283 31.283 0 0 0-.151 3.104c0 1.287.075 2.801.302 4.467-1.665-.076-4.39-.152-8.325-.152-4.693 0-8.25 0-10.672.152v-.757c.908-.076 1.59-.152 1.968-.303.454-.151.681-.454.832-.909.152-.454.227-1.135.227-2.119v-15.066c0-.985-.075-1.666-.227-2.12a1.43 1.43 0 0 0-.832-.909c-.454-.151-1.06-.227-1.968-.303v-.757c1.06.076 2.649.152 4.844.152 2.043 0 3.633 0 4.844-.152v.909zm31.637-.757v.757a3.217 3.217 0 0 0-1.741 1.06c-.454.53-.908 1.438-1.514 2.65l-8.325 18.851h-.606l-8.855-20.138c-.681-1.59-1.59-2.347-2.65-2.423v-.757c1.06.075 2.423.151 4.088.151 2.195 0 3.784 0 4.844-.151v.757c-.908.076-1.665.151-2.044.378-.378.228-.68.53-.68 1.06 0 .379.15.985.529 1.817l6.509 14.763 5.676-12.643c.606-1.363.984-2.423.984-3.255 0-.682-.227-1.212-.757-1.514-.53-.303-1.21-.53-2.27-.53v-.758c.757.076 2.195.152 4.238.152 1.06-.152 1.893-.152 2.574-.227zm20.435 23.091c-1.665-.076-4.39-.152-8.325-.152-4.693 0-8.25 0-10.672.152v-.757c.908-.076 1.59-.152 1.968-.303.454-.151.68-.454.832-.909.151-.454.227-1.135.227-2.119v-15.066c0-.985-.075-1.666-.227-2.12a1.431 1.431 0 0 0-.833-.909c-.454-.151-1.06-.227-1.967-.303v-.757c2.422.076 5.979.152 10.672.152 3.557 0 6.054 0 7.568-.152-.151 1.515-.303 2.877-.303 4.089 0 .984.076 1.741.152 2.347h-.908c-.152-2.044-.606-3.559-1.287-4.391-.681-.833-1.817-1.212-3.406-1.212h-2.8c-.909 0-1.59.076-1.968.227-.454.152-.681.455-.833.833-.151.454-.227 1.136-.227 2.12v7.041h3.179c.833 0 1.438-.227 1.892-.606.454-.454.757-.908.908-1.363.152-.53.303-1.135.454-1.892h.909a31.289 31.289 0 0 0-.152 2.801v1.438c0 .985.076 2.423.227 4.24h-.908c-.151-1.211-.454-2.195-.908-2.877-.454-.681-1.211-1.06-2.422-1.06h-3.179v7.193c0 .984.076 1.665.227 2.119.151.455.454.682.833.833.454.152 1.06.227 1.968.227h2.8c1.287 0 2.27-.227 3.027-.605.757-.379 1.287-1.06 1.666-1.969.378-.908.68-2.195.832-3.785h.908c-.075.681-.151 1.59-.151 2.725-.076 1.59.076 3.104.227 4.77zm26.036-1.59a5.53 5.53 0 0 1-1.665 1.59c-.606.378-1.362.53-2.195.53-2.119 0-3.406-.984-3.936-2.877l-1.211-4.77c-.378-1.438-.908-2.347-1.589-2.877-.681-.454-1.741-.757-3.103-.757h-2.195v6.663c0 .984.076 1.665.227 2.119.151.455.454.758.833.909.454.151 1.059.227 1.967.303v.757a73.487 73.487 0 0 0-4.844-.152c-2.194 0-3.784 0-4.843.152v-.757c.908-.076 1.589-.152 1.967-.303.454-.151.682-.454.833-.909.151-.454.227-1.135.227-2.119v-15.066c0-.985-.076-1.666-.227-2.12a1.43 1.43 0 0 0-.833-.909c-.454-.151-1.06-.227-1.968-.303v-.757c1.06.076 2.574.152 4.617.152h3.86c.454 0 .909-.076 1.514-.076 2.8 0 4.995.53 6.509 1.59 1.514 1.06 2.271 2.423 2.271 4.164 0 1.438-.606 2.801-1.741 4.013-1.211 1.211-3.103 1.968-5.828 2.346.53.076.908.076 1.287.152 1.362.227 2.422.606 3.179 1.211.756.606 1.362 1.59 1.665 2.953l.832 3.482c.227.909.454 1.515.681 1.893.227.379.53.53.909.53.605 0 1.362-.454 2.119-1.287l.681.53zm-14.91-20.517c-.379.151-.606.53-.681.984-.152.454-.227 1.136-.227 2.044v7.647h2.573c2.195 0 3.784-.454 4.617-1.439.832-.984 1.211-2.271 1.211-4.012 0-1.817-.454-3.18-1.363-4.088-.908-.909-2.422-1.363-4.541-1.363-.681 0-1.211.076-1.589.227zm25.96-.227c-.908.076-1.589.151-1.968.303-.454.151-.681.454-.832.908-.152.454-.227 1.136-.227 2.12v14.99c0 .985.075 1.666.227 2.12.151.454.454.757.832.909.455.151 1.06.227 1.968.303v.757a73.487 73.487 0 0 0-4.844-.152c-2.195 0-3.784 0-4.844.152v-.757c.909-.076 1.59-.152 1.968-.303.454-.152.681-.455.833-.909.151-.454.227-1.135.227-2.12v-15.066c0-.984-.076-1.665-.227-2.119-.152-.455-.454-.758-.833-.909-.454-.151-1.059-.227-1.968-.303v-.757c1.06.076 2.649.152 4.844.152 2.044 0 3.633 0 4.844-.152v.833zm25.128 21.577v.757a52.658 52.658 0 0 0-4.087-.151c-2.195 0-3.784 0-4.844.151v-.757c.908-.076 1.665-.152 2.044-.379.454-.227.681-.53.681-1.06 0-.378-.152-.984-.53-1.817l-1.968-4.315h-9.234l-1.286 2.877c-.454.984-.681 1.817-.681 2.423 0 .681.227 1.135.681 1.514.454.378 1.211.605 2.27.681v.757a35.309 35.309 0 0 0-3.481-.151c-1.59 0-2.649 0-3.33.151v-.757a2.946 2.946 0 0 0 1.74-1.135c.455-.606.909-1.363 1.363-2.347l8.401-19.003h.605l8.931 20.138c.757 1.59 1.59 2.347 2.725 2.423zm-9.007-8.328l-4.314-9.691-4.314 9.691h8.628zM92.167 14.905a34.135 34.135 0 0 0-4.844-1.969 29.854 29.854 0 0 0-9.006-1.363c-4.315 0-8.402.909-12.186 2.499a12.627 12.627 0 0 0-.908 4.694c3.86-2.12 8.325-3.407 13.094-3.407 14.91 0 27.019 12.113 27.019 27.028 0 6.435-2.27 12.34-6.054 16.959.227.832.454 1.74.53 2.65.15.756.15 1.438.226 2.195 5.601-5.602 9.083-13.25 9.083-21.804 0-11.962-6.888-22.334-16.954-27.482zm-40.87 27.558c0-6.511 2.346-12.492 6.206-17.186-.454-1.59-.681-3.18-.757-4.77-5.677 5.602-9.234 13.4-9.234 21.956 0 11.962 6.888 22.41 16.954 27.482 1.514.757 3.103 1.438 4.768 1.968 2.876.909 5.904 1.363 9.083 1.363 4.39 0 8.552-.909 12.336-2.574.152-.303.227-.606.303-.909.379-1.287.53-2.574.606-3.785-3.936 2.196-8.402 3.483-13.245 3.483-14.91-.076-27.02-12.19-27.02-27.028z"/><path d="M89.67 15.813a11.583 11.583 0 0 0-2.877-9.236c-1.135-1.212-2.422-2.12-3.86-2.726-1.438-.605-3.027-.832-4.54-.832V.747h.075v2.347a15.623 15.623 0 0 0-7.417 2.12c-1.136.681-2.12 1.439-3.104 2.271-.908.909-1.74 1.893-2.422 2.953-2.724 4.315-3.254 9.842-1.362 14.46.53 1.136 1.06 2.271 1.817 3.256.68.984 1.513 1.817 2.497 2.725l6.434 5.527a584.873 584.873 0 0 1 12.79 11.13l3.18 2.8c1.059.909 2.27 2.044 3.254 3.407 1.816 2.574 3.103 5.603 3.557 8.707.454 3.104.152 6.36-.908 9.236a19.013 19.013 0 0 1-5.147 7.647c-2.27 2.12-5.07 3.558-8.022 4.24a18.03 18.03 0 0 1-4.466.53c-1.514 0-3.103-.228-4.541-.758-2.876-1.06-5.298-3.18-6.66-5.83-1.363-2.65-1.666-5.753-.833-8.479-.378 2.802.303 5.678 1.816 7.874 1.514 2.196 3.785 3.861 6.282 4.467 1.287.303 2.498.378 3.86.303 1.287-.076 2.574-.379 3.86-.757a16.53 16.53 0 0 0 6.51-4.013c1.816-1.817 3.103-4.088 3.86-6.435.68-2.423.908-4.997.454-7.42-.379-2.498-1.514-4.77-3.028-6.738a19.555 19.555 0 0 0-1.211-1.362c-.454-.455-.908-.833-1.438-1.288l-3.179-2.725c-4.238-3.71-8.552-7.344-12.79-11.13l-6.359-5.602c-1.135-.984-2.27-2.195-3.178-3.558-.908-1.287-1.59-2.725-2.195-4.164-1.06-2.953-1.438-6.208-1.06-9.312.379-3.104 1.665-6.057 3.406-8.63.908-1.212 1.968-2.423 3.103-3.408 1.135-.984 2.498-1.817 3.86-2.498 2.725-1.363 5.828-1.968 8.78-1.893v2.347h-.076V.823c3.785.151 7.342 2.044 9.46 4.997 1.06 1.438 1.742 3.18 2.12 4.845.227 1.741.152 3.558-.303 5.148z"/></symbol><symbol viewBox="0 0 20 16" id="scroll" xmlns="http://www.w3.org/2000/svg"><path d="M10.392 15.176l9.524-13.81a.478.478 0 0 0-.392-.747H.476a.477.477 0 0 0-.392.747l9.524 13.81a.476.476 0 0 0 .784 0zM1.382 1.572h17.235L10 14.067 1.383 1.572z"/></symbol></svg>