<svg width="165" height="127" viewBox="0 0 165 127" fill="none" xmlns="http://www.w3.org/2000/svg">
<path d="M2.60889 116.917C2.60889 122.42 2.5708 124.667 2.45654 126.267H3.35156C3.50391 125.143 3.71338 124.553 4.2085 124.553C4.53223 124.553 4.91309 124.705 5.5415 125.105C6.66504 125.81 8.1123 126.552 10.8735 126.552C15.4058 126.552 19.1572 124.096 19.1572 119.145C19.1572 114.955 16.1865 112.898 12.1304 110.366C8.62646 108.176 5.57959 106.767 5.57959 103.225C5.57959 100.54 7.56006 98.6924 10.3403 98.6924C14.6631 98.6924 16.4531 102.482 16.7388 106.195H17.6338C17.6338 101.282 17.71 99.6064 17.8242 98.2354H16.9292C16.7769 99.3589 16.5674 99.9492 16.0723 99.9492C15.7104 99.9492 15.3677 99.7969 14.7393 99.397C13.6919 98.6924 12.5493 97.9497 9.97852 97.9497C6.13184 97.9497 2.64697 100.102 2.64697 104.71C2.64697 109.109 5.88428 111.223 9.59766 113.451C13.2158 115.622 15.6724 117.412 15.6724 120.573C15.6724 124.248 13.1396 125.771 10.6069 125.771C5.61768 125.771 3.82764 121.639 3.50391 116.917H2.60889ZM32.6396 102.292C31.4399 102.368 29.4785 102.406 27.6885 102.406C25.6699 102.406 23.7847 102.368 22.6992 102.292V103.072C25.3462 103.187 25.8604 103.567 25.8604 106.424V121.868C25.8604 124.705 25.3462 125.105 22.6992 125.219V126C23.7847 125.924 25.6699 125.886 27.6885 125.886C29.4785 125.886 31.4399 125.924 32.6396 126V125.219C29.9927 125.105 29.4785 124.705 29.4785 121.868V106.424C29.4785 103.567 29.9927 103.187 32.6396 103.072V102.292ZM45.8555 102.292C44.6558 102.368 42.6943 102.406 40.9043 102.406C38.8857 102.406 37.0005 102.368 35.915 102.292V103.072C38.562 103.187 39.0762 103.567 39.0762 106.424V121.868C39.0762 124.705 38.562 125.105 35.915 125.219V126C39.6284 125.886 44.5796 125.886 46.8267 125.886C49.3403 125.886 52.8442 125.886 55.377 126C55.1865 124.172 55.1104 122.287 55.1104 121.392C55.1104 120.154 55.1484 119.011 55.2246 118.192H54.3296C53.8916 123.353 51.7588 125.105 48.312 125.105H45.8555C43.2085 125.105 42.6943 124.705 42.6943 121.868V106.424C42.6943 103.567 43.2085 103.187 45.8555 103.072V102.292ZM71.354 103.072C73.3345 103.148 74.4199 103.682 74.4199 105.186C74.4199 106.005 74.1152 107.071 73.4678 108.519L67.6406 121.487L60.9375 106.348C60.5947 105.567 60.4233 104.958 60.4233 104.5C60.4233 103.453 61.3564 103.148 63.2036 103.072V102.292C62.1182 102.368 60.2329 102.406 58.2144 102.406C56.729 102.406 55.0913 102.368 54.0439 102.292V103.072C54.8628 103.11 55.8721 103.605 56.729 105.567L65.8506 126.19H66.479L75.0293 106.881C76.1147 104.424 76.7812 103.453 78.3047 103.072V102.292C77.6382 102.368 76.5908 102.406 75.6768 102.406C74.2866 102.406 72.1348 102.368 71.354 102.292V103.072ZM98.2427 118.592C97.8047 123.467 96.4336 125.105 92.625 125.105H89.7686C87.1216 125.105 86.6074 124.705 86.6074 121.868V114.46H89.8447C92.5488 114.46 92.9678 116.517 93.1963 118.44H94.1104C93.9009 116.06 93.8628 115.126 93.8628 114.06C93.8628 113.603 93.8438 113.146 93.8438 112.594C93.8438 111.889 93.8628 111.013 93.9771 109.699H93.082C92.8535 111.108 92.5488 113.679 89.8447 113.679H86.6074V106.424C86.6074 103.567 87.1216 103.187 89.7686 103.187H92.625C95.8242 103.187 97.062 104.634 97.4619 108.918H98.3569C98.2808 108.328 98.2427 107.433 98.2427 106.5C98.2427 105.681 98.3188 103.967 98.5093 102.292C96.2051 102.406 93.0059 102.406 90.7397 102.406C88.4927 102.406 83.5415 102.406 79.8281 102.292V103.072C82.4751 103.187 82.9893 103.567 82.9893 106.424V121.868C82.9893 124.705 82.4751 125.105 79.8281 125.219V126C83.5415 125.886 88.4927 125.886 90.7397 125.886C93.2534 125.886 96.7573 125.886 99.29 126C99.0996 124.172 99.0234 122.287 99.0234 121.392C99.0234 120.306 99.0615 119.297 99.1377 118.592H98.2427ZM125.531 123.848C124.903 124.553 124.122 125.181 123.379 125.181C122.599 125.181 122.18 124.515 121.742 122.687L120.885 119.145C120.18 116.212 118.428 115.279 115.896 114.879C115.419 114.803 115.02 114.765 114.562 114.746C120.618 114.003 122.332 110.766 122.332 108.214C122.332 104.862 119.323 102.33 113.325 102.33C112.468 102.33 110.125 102.406 107.821 102.406C106.107 102.406 104.146 102.368 103.061 102.292V103.072C105.708 103.187 106.222 103.529 106.222 106.424V121.868C106.222 124.705 105.708 125.105 103.061 125.219V126C104.146 125.924 106.031 125.886 108.05 125.886C109.84 125.886 111.801 125.924 113.001 126V125.219C110.354 125.105 109.84 124.705 109.84 121.868V115.05H112.068C114.677 115.05 116.124 115.66 116.867 118.707L118.066 123.582C118.466 125.105 119.514 126.552 122.084 126.552C123.97 126.552 125.131 125.695 126.064 124.362L125.531 123.848ZM109.84 114.27V106.424C109.84 103.739 110.278 103.072 112.334 103.072C116.791 103.072 118.428 105.015 118.428 108.652C118.428 111.813 117.381 114.27 112.468 114.27H109.84ZM137.338 102.292C136.138 102.368 134.177 102.406 132.387 102.406C130.368 102.406 128.483 102.368 127.397 102.292V103.072C130.044 103.187 130.559 103.567 130.559 106.424V121.868C130.559 124.705 130.044 125.105 127.397 125.219V126C128.483 125.924 130.368 125.886 132.387 125.886C134.177 125.886 136.138 125.924 137.338 126V125.219C134.691 125.105 134.177 124.705 134.177 121.868V106.424C134.177 103.567 134.691 103.187 137.338 103.072V102.292ZM151.296 102.101H150.668L142.061 121.601C141.28 123.391 140.347 124.838 138.861 125.219V126C139.528 125.924 141.356 125.886 142.251 125.886C143.66 125.886 145.012 125.924 145.793 126V125.219C143.66 125.048 142.765 124.248 142.765 122.915C142.765 122.21 142.994 121.392 143.413 120.42L144.727 117.507H154.248L156.209 121.944C156.571 122.725 156.743 123.334 156.743 123.791C156.743 124.838 155.81 125.143 153.943 125.219V126C155.048 125.924 156.914 125.886 158.952 125.886C160.418 125.886 162.056 125.924 163.122 126V125.219C162.303 125.181 161.275 124.667 160.418 122.725L151.296 102.101ZM153.905 116.726H145.069L149.506 106.805L153.905 116.726Z" fill="#B48570"/>
<path d="M96.793 61.9058C96.793 67.0039 95.0995 70.9641 91.7125 73.6952C90.4766 74.6966 89.1493 75.516 87.7304 76.1533C85.2588 77.2457 82.421 77.7919 79.2629 77.8374C79.1255 77.8374 78.9882 77.8374 78.8967 77.8374C78.8967 77.8374 78.8967 77.8374 78.8509 77.8374L67.4998 78.1106V76.3353C68.4152 76.2898 69.2391 76.1988 69.9714 76.1077C70.8868 75.9712 71.6192 75.8346 72.1684 75.607C72.443 75.516 72.6719 75.3794 72.855 75.2429C73.45 74.8787 73.8619 74.3325 74.1365 73.6042C74.2281 73.3311 74.3196 73.058 74.3654 72.6938C74.5485 71.7379 74.6858 70.4179 74.6858 68.7337V52.1647C77.2489 53.7124 79.4002 55.169 81.0937 56.489C81.7345 56.9898 82.3295 57.4449 82.8787 57.9457V68.8247C82.8787 70.0992 82.9245 71.1917 83.0618 72.0565C83.0618 72.1476 83.1076 72.2841 83.1534 72.4207C83.4737 73.7407 85.1215 74.287 86.1284 73.4221C88.2797 71.5558 89.3324 68.7792 89.3324 65.0466C89.3324 61.9058 88.2797 59.2657 86.1742 57.0808C85.3046 56.1704 84.2061 55.2145 82.8787 54.2131C81.0479 52.802 78.8051 51.2999 76.1504 49.7067C75.647 49.3881 75.1435 49.115 74.6858 48.7963C72.0311 47.1577 69.8341 45.6555 68.0948 44.3355C66.0351 42.7878 64.3874 40.876 63.0601 38.6456C61.7785 36.4152 61.1377 33.8661 61.1377 30.8619C61.1377 26.1734 62.6481 22.5774 65.669 20.0739C66.7217 19.209 67.8202 18.5262 69.056 17.98C71.1157 17.0241 73.45 16.4779 76.0131 16.3868C76.3335 16.3868 76.6539 16.3868 76.9743 16.3868L89.9732 16.1592V17.9345C88.0508 18.0255 86.6319 18.2531 85.625 18.5262C85.5334 18.5717 85.4419 18.5717 85.3046 18.6173C84.8011 18.7993 84.3434 19.0725 84.023 19.4821C83.7026 19.8008 83.5195 20.2104 83.3364 20.6656C83.1991 21.0753 83.0618 21.6215 82.9703 22.2588C82.833 23.1236 82.7872 24.2161 82.7872 25.4906V40.5119L80.636 39.1918C78.8051 38.0539 77.3863 37.1435 76.242 36.3697C75.647 35.96 75.0977 35.5958 74.5943 35.2317V25.3541C74.5943 23.7154 74.5027 22.3953 74.2739 21.3939C74.2739 21.3939 74.2739 21.3484 74.2281 21.3029C73.6788 19.7552 71.7107 19.3 70.4749 20.3925C70.3834 20.4835 70.2918 20.5746 70.2003 20.6656C68.2779 22.4864 67.3167 24.8078 67.3167 27.6755C67.3167 29.8149 67.8202 31.6357 68.7814 33.2289C69.7883 34.7765 71.0241 36.1421 72.5346 37.28C73.1296 37.6897 73.7704 38.1904 74.5027 38.6911C75.7385 39.5105 77.2489 40.4664 78.9882 41.5588L81.4598 43.061C81.8718 43.3341 82.2837 43.5617 82.6956 43.8348C85.6707 45.701 88.0508 47.3853 89.8816 48.8419C91.9413 50.4805 93.589 52.3923 94.8249 54.5317C96.1522 56.5801 96.793 59.0836 96.793 61.9058ZM78.9425 0C78.9425 1.63868 74.3196 6.2361 72.6719 6.2361C74.3196 6.2361 78.9425 10.8335 78.9425 12.4722C78.9425 10.8335 83.5653 6.2361 85.213 6.2361C83.5195 6.2361 78.9425 1.63868 78.9425 0Z" fill="#B48570"/>
</svg>
