<svg width="170" height="127" viewBox="0 0 170 127" fill="none" xmlns="http://www.w3.org/2000/svg">
<path d="M84.7577 53.1627C87.6308 53.1627 89.96 50.8431 89.96 47.9818C89.96 45.1204 87.6308 42.8008 84.7577 42.8008C81.8845 42.8008 79.5553 45.1204 79.5553 47.9818C79.5553 50.8431 81.8845 53.1627 84.7577 53.1627Z" fill="#B48570"/>
<path d="M112.944 55.328C112.012 59.117 110.304 62.5968 107.974 65.6126C107.198 66.6178 106.344 67.6231 105.489 68.551C102.927 71.0255 99.9765 73.0361 96.7929 74.5053C95.3176 75.1239 93.7647 75.6652 92.2118 76.0518C89.7271 76.7478 87.1647 76.9025 84.6023 76.9798C83.2823 76.9025 82.04 76.9025 80.7976 76.6705C80.1765 76.5931 79.5553 76.5158 78.9341 76.3612L77.0706 75.8972C76.4494 75.7425 75.8282 75.5106 75.2847 75.2786C74.6635 75.0466 74.12 74.8146 73.4988 74.5826C72.3341 73.964 71.1694 73.5 70.16 72.8041C67.9859 71.4895 66.0447 69.7883 64.2588 68.0097L63.0165 66.6178C62.6282 66.1539 62.24 65.6126 61.8518 65.0713C61.0753 64.066 60.4541 62.9061 59.8329 61.9008C59.5223 61.3595 59.2894 60.7409 59.0565 60.1996L58.6682 59.349L58.3576 58.4211L57.7365 56.6425L57.2706 54.7867L56.8823 53.7041L56.8047 52.7761L56.5718 50.9203L56.4941 49.0644V48.1365C56.4941 47.8271 56.5718 47.5178 56.5718 47.1312C56.7271 44.502 57.5035 41.9502 58.8235 39.7077C61.4635 35.2227 66.0447 32.0523 71.0918 31.2016C76.0612 30.4284 81.3412 31.9749 84.9129 35.3C86.6988 36.9239 88.0965 38.9344 89.0282 41.1769C89.8823 43.3421 90.2706 45.7393 90.1153 48.0591C89.8047 43.4968 87.3976 39.2438 83.8259 36.6919C82.04 35.4547 80.0212 34.5267 77.9247 34.1401C75.8282 33.7535 73.6541 33.8308 71.6353 34.2948C67.5976 35.2227 64.1035 38.0838 62.3953 41.7182C61.5412 43.4968 61.0753 45.5073 60.9976 47.4405C60.9976 47.6725 60.9976 47.9045 60.9976 48.2138L61.0753 48.9871L61.2306 50.5336L61.5412 52.0802L61.6965 52.8535L61.9294 53.6268L62.3953 55.096L63.0165 56.5652L63.3271 57.2612L63.7153 57.9571C63.9482 58.4211 64.1812 58.885 64.4141 59.349C65.5012 61.1276 66.6659 62.8288 68.1412 64.2207C69.6165 65.6899 71.2471 66.9272 73.0329 67.9324C73.8871 68.4737 74.8188 68.8604 75.7506 69.3243C76.2165 69.5563 76.6823 69.6336 77.2259 69.8656C77.6918 70.0203 78.1576 70.1749 78.7012 70.3296C83.0494 71.5668 87.7859 71.3348 92.0565 69.9429C92.2118 69.8656 92.4447 69.8656 92.6 69.7883C92.9882 69.6336 93.2988 69.5563 93.6094 69.4016L94.5412 69.015C94.6965 68.9377 94.8518 68.8604 95.0071 68.783C97.0259 67.7778 98.9671 66.5405 100.598 64.9166C100.753 64.762 100.986 64.6073 101.141 64.3753C101.685 63.834 102.151 63.2927 102.694 62.6741C104.791 60.1223 106.421 57.1838 107.198 54.0134C107.819 52.0802 107.974 49.9923 107.974 47.9818C107.896 46.9765 107.974 45.9713 107.741 44.966C107.664 44.502 107.586 43.9608 107.508 43.4968L107.12 42.0276C107.042 41.4863 106.887 41.0223 106.654 40.5583C106.499 40.0944 106.344 39.6304 106.111 39.0891C105.645 38.1612 105.334 37.2332 104.713 36.3826C103.704 34.6041 102.384 32.9802 100.986 31.511C99.5106 30.0417 97.8023 28.8818 96.0941 27.7992C95.6282 27.5672 95.1623 27.3352 94.6965 27.1033L93.9976 26.7166L93.2988 26.4073L91.8235 25.7887L90.2706 25.1701L89.4941 24.9381L88.7176 24.7834L87.1647 24.4741L83.8259 24.2421C82.4282 24.0875 81.0306 23.7782 79.7882 23.1595C78.5459 22.6182 77.3812 21.7676 76.3718 20.8397C74.3529 18.9838 73.1106 16.432 72.7223 13.7255C72.3341 11.0964 72.8776 8.31257 74.1976 6.07006C75.5176 3.82755 77.6141 2.04901 80.0212 1.12108C82.4282 0.19314 85.0682 0.038485 87.4753 0.811764C89.8823 1.50772 91.9012 3.05427 93.2988 5.0648C94.6188 6.92067 95.24 9.16318 95.1623 11.4057C95.1623 11.483 95.1623 11.6377 95.1623 11.7923C94.8518 7.15266 91.28 3.28626 87.087 2.59031C84.9906 2.20367 82.8165 2.51298 81.0306 3.44092C79.2447 4.36885 77.7694 5.91541 76.9153 7.61662C76.0612 9.39516 75.8282 11.4057 76.2941 13.2616C76.6823 15.1174 77.6918 16.8186 79.1671 17.9786C80.5647 19.1385 82.3506 19.8344 84.2141 19.9118L87.7082 19.9891L89.5718 20.2211L90.5035 20.2984L91.4353 20.5304L93.2988 20.9944L95.0847 21.613L96.0165 21.9223L96.8706 22.3089C97.4141 22.5409 98.0353 22.8502 98.5788 23.0822C99.6659 23.7008 100.831 24.3195 101.762 25.0927C102.306 25.4794 102.772 25.7887 103.315 26.2527L104.713 27.4899C106.576 29.2684 108.207 31.2016 109.527 33.3668C110.226 34.4494 110.769 35.6093 111.313 36.6919C111.546 37.3106 111.779 37.8518 112.012 38.4705C112.245 39.0891 112.478 39.6304 112.633 40.249C114.108 45.0433 114.264 50.3016 112.944 55.328Z" fill="#B48570"/>
<path d="M112.866 55.328C111.934 59.0398 110.226 62.5969 107.896 65.69C107.12 66.6952 106.266 67.7005 105.412 68.6284C102.849 71.1029 99.8988 73.1135 96.7153 74.5827C95.24 75.2013 93.6871 75.7426 92.1341 76.1292C89.6494 76.8252 87.0871 76.9799 84.5247 77.0572C83.2047 76.9799 81.9623 76.9799 80.72 76.7479C80.0988 76.6705 79.4776 76.5932 78.8565 76.4386L76.9929 75.9746C76.3718 75.8199 75.7506 75.588 75.2071 75.356C74.5859 75.124 74.0424 74.892 73.4212 74.66C72.2565 74.0414 71.0918 73.5774 70.0823 72.8815C67.9082 71.5669 65.9671 69.8657 64.1812 68.0871L62.9388 66.6952C62.5506 66.2313 62.1623 65.69 61.7741 65.1487C60.9976 64.1434 60.3765 62.9835 59.7553 61.9782C59.4447 61.4369 59.2118 60.8183 58.9788 60.277L58.5906 59.4264L58.28 58.4985L57.6588 56.7199L57.1929 54.8641L56.8823 53.7041L56.8047 52.7762L56.5718 50.9203L56.4941 49.0645V48.1365C56.4941 47.8272 56.5718 47.5179 56.5718 47.1313C56.7271 44.5021 57.5035 41.9503 58.8235 39.7078C61.4635 35.2228 66.0447 32.0523 71.0918 31.2017C76.0612 30.4284 81.3412 31.975 84.9129 35.3001C86.6988 36.924 88.0965 38.9345 89.0282 41.177C89.8823 43.3422 90.2706 45.7394 90.1153 48.0592H89.4165C89.1835 43.6515 86.8541 39.6305 83.5153 37.156C80.1765 34.6815 75.7506 33.8309 71.8682 34.7588C67.9859 35.6867 64.5694 38.3932 62.8612 41.873C62.0071 43.6515 61.5412 45.5074 61.4635 47.4406C61.4635 47.6726 61.4635 47.9045 61.4635 48.1365L61.5412 48.9098L61.6188 50.4564L61.8518 52.0029L62.0071 52.7762L62.24 53.5495L62.6282 55.0187L63.1718 56.4106L63.4823 57.1066L63.8706 57.8025C64.1035 58.2665 64.3365 58.7305 64.5694 59.1944C65.6565 60.973 66.8212 62.5969 68.2965 64.0661C69.7718 65.5353 71.3247 66.7726 73.1106 67.7778C73.9647 68.3191 74.8965 68.7058 75.8282 69.1697C76.2941 69.4017 76.76 69.479 77.2259 69.711C77.6918 69.8657 78.1576 70.0977 78.7012 70.175L80.1765 70.5616C80.6423 70.639 81.1859 70.7163 81.6518 70.7936C82.6612 71.0256 83.6706 70.9483 84.68 71.0256C86.2329 71.0256 87.7082 70.8709 89.2612 70.639C89.7271 70.5616 90.2706 70.407 90.7365 70.2523C91.2024 70.175 91.5906 70.0203 91.9788 69.8657C92.1341 69.7884 92.3671 69.7884 92.5223 69.711C92.9106 69.5564 93.2212 69.479 93.5318 69.3244C93.8424 69.1697 94.1529 69.0924 94.4635 68.9377C94.6188 68.8604 94.7741 68.7831 94.9294 68.7058C96.9482 67.7005 98.8894 66.3859 100.52 64.8394C100.675 64.6847 100.908 64.5301 101.064 64.2981C101.607 63.7568 102.073 63.2155 102.616 62.5969C104.713 60.045 106.344 57.1066 107.12 53.9361C107.741 52.0029 107.896 49.9151 107.896 47.9045C107.819 46.8993 107.896 45.894 107.664 44.8888C107.586 44.4248 107.508 43.8835 107.431 43.4195L107.042 41.9503C106.965 41.409 106.809 40.945 106.576 40.4811C106.421 40.0171 106.266 39.4758 106.033 39.0118C105.567 38.0839 105.256 37.156 104.635 36.3054C103.626 34.5268 102.306 32.9029 100.908 31.4337C99.4329 29.9645 97.7247 28.7272 96.0165 27.6446C95.5506 27.4126 95.0847 27.1807 94.6188 26.9487L93.92 26.562L93.2212 26.2527L91.7459 25.6341L90.2706 25.1701L89.4941 24.9381L88.7176 24.7835L87.1647 24.4742L83.8259 24.2422C82.4282 24.0875 81.1082 23.7782 79.8659 23.1596C78.6235 22.6183 77.4588 21.7677 76.5271 20.8398C74.5082 18.9839 73.2659 16.4321 72.8776 13.8029C72.4894 11.1738 73.0329 8.4673 74.3529 6.14746C75.6729 3.90495 77.7694 2.1264 80.1765 1.19847C82.5835 0.270533 85.2235 0.115878 87.5529 0.889157C89.96 1.58511 91.9788 3.13167 93.3765 5.06487C94.6965 6.92074 95.3176 9.16325 95.24 11.3284C95.24 11.4058 95.24 11.5604 95.24 11.7151C95.0071 7.07539 91.3576 3.13167 87.1647 2.43572C85.0682 2.04908 82.8941 2.35839 81.0306 3.28632C79.1671 4.21426 77.6918 5.76082 76.8376 7.53936C75.9835 9.3179 75.7506 11.3284 76.1388 13.2616C76.5271 15.1175 77.6141 16.8187 79.0118 18.056C80.4871 19.2932 82.2729 19.9118 84.0588 19.9892L87.5529 20.0665L89.4165 20.2985L90.3482 20.4531L91.28 20.6851L93.1435 21.1491L94.9294 21.7677L95.7835 22.077L96.6376 22.4637C97.1812 22.6956 97.8023 23.0049 98.3459 23.2369C99.4329 23.8556 100.598 24.4742 101.529 25.2475C101.995 25.6341 102.539 25.9434 103.005 26.4074L104.402 27.6446C106.188 29.4232 107.896 31.3564 109.216 33.5216C109.915 34.6041 110.459 35.7641 111.002 36.8466C111.235 37.4653 111.468 38.0066 111.701 38.6252C111.934 39.2438 112.167 39.7851 112.322 40.4037C114.108 45.0434 114.186 50.3017 112.866 55.328Z" fill="#B48570"/>
<path d="M92.4447 57.2612C91.047 57.3386 90.0376 57.4932 89.4165 57.7252C88.7953 57.9572 88.3294 58.4212 88.0965 59.0398C87.8635 59.6584 87.7859 60.741 87.7859 62.2102V85.0993C87.7859 86.5685 87.8635 87.6511 88.0965 88.2697C88.3294 88.8884 88.7953 89.3523 89.4165 89.5843C90.0376 89.8163 91.047 89.9709 92.4447 90.0483V91.2082C90.6588 91.1309 88.1741 91.0535 85.0682 91.0535C81.7294 91.0535 79.2447 91.1309 77.6141 91.2082V90.1256C79.0118 90.0483 80.0212 89.8936 80.6423 89.6616C81.2635 89.4296 81.7294 88.9657 81.9623 88.3471C82.1953 87.7284 82.2729 86.6459 82.2729 85.1766V62.2876C82.2729 60.8183 82.1953 59.7357 81.9623 59.1171C81.7294 58.4985 81.2635 58.0345 80.6423 57.8025C80.0212 57.5705 79.0118 57.4159 77.6141 57.3386V56.1013C79.2447 56.1786 81.7294 56.256 85.0682 56.256C88.1741 56.256 90.6588 56.1786 92.4447 56.1013V57.2612Z" fill="#B48570"/>
<path d="M11.2259 97.317C11.9247 97.549 12.6235 97.9356 13.4 98.4769C14.0212 98.8636 14.4871 99.0182 14.7976 99.0182C15.0306 99.0182 15.2635 98.8636 15.3412 98.5542C15.4965 98.2449 15.5741 97.781 15.6518 97.1623H16.5835C16.4282 98.7089 16.3506 101.493 16.3506 105.514H15.4188C15.2635 103.271 14.6423 101.415 13.4776 99.9461C12.3129 98.4769 10.76 97.7036 8.66352 97.7036C7.18823 97.7036 5.94588 98.1676 5.01411 99.0182C4.08235 99.8688 3.61646 101.029 3.61646 102.421C3.61646 103.426 3.8494 104.354 4.31529 105.127C4.78117 105.9 5.40235 106.519 6.17882 107.06C6.95529 107.602 7.9647 108.298 9.36235 109.148L10.5271 109.921C12.2353 111.004 13.6329 111.932 14.6423 112.705C15.6518 113.479 16.4282 114.406 17.0494 115.489C17.6706 116.494 17.9812 117.732 17.9812 119.123C17.9812 121.598 17.1271 123.531 15.4965 124.846C13.8659 126.16 11.7694 126.856 9.20705 126.856C7.88705 126.856 6.79999 126.702 5.94587 126.47C5.09176 126.16 4.31529 125.851 3.53881 125.387C2.91764 125 2.45176 124.846 2.14117 124.846C1.90823 124.846 1.67528 125 1.59764 125.31C1.44234 125.619 1.3647 126.083 1.28705 126.702H0.355286C0.432933 125.232 0.510579 121.907 0.510579 116.881H1.44234C1.59764 119.665 2.29646 121.907 3.46117 123.608C4.62587 125.31 6.41176 126.16 8.89646 126.16C10.3718 126.16 11.6141 125.696 12.7012 124.768C13.7106 123.84 14.2541 122.526 14.2541 120.67C14.2541 119.123 13.7106 117.809 12.7012 116.804C11.6918 115.721 10.0612 114.561 7.8094 113.169C6.17882 112.164 4.85882 111.313 3.8494 110.54C2.83999 109.767 2.06352 108.839 1.3647 107.756C0.74352 106.674 0.432932 105.436 0.432932 103.967C0.432932 101.647 1.2094 99.9462 2.6847 98.7089C4.15999 97.4717 6.02352 96.853 8.19764 96.853C9.59529 96.9304 10.5271 97.0077 11.2259 97.317Z" fill="#B48570"/>
<path d="M32.2682 102.266C31.2588 102.343 30.56 102.421 30.0941 102.575C29.6282 102.73 29.3176 103.039 29.1623 103.503C29.007 103.967 28.9294 104.741 28.9294 105.746V121.985C28.9294 122.99 29.007 123.763 29.1623 124.227C29.3176 124.691 29.6282 125.001 30.0941 125.155C30.56 125.31 31.2588 125.464 32.2682 125.464V126.315C31.0259 126.238 29.24 126.16 27.0659 126.16C24.7364 126.16 22.9506 126.238 21.7859 126.315V125.464C22.7953 125.387 23.4941 125.31 23.96 125.155C24.4259 125.001 24.7364 124.691 24.8917 124.227C25.047 123.763 25.1247 122.99 25.1247 121.985V105.746C25.1247 104.741 25.047 103.967 24.8917 103.503C24.7364 103.039 24.4259 102.73 23.96 102.575C23.4941 102.421 22.7953 102.266 21.7859 102.266V101.416C22.9506 101.493 24.6588 101.57 27.0659 101.57C29.24 101.57 31.0259 101.493 32.2682 101.416V102.266Z" fill="#B48570"/>
<path d="M46.2447 102.266C45.2353 102.343 44.5365 102.42 44.0706 102.575C43.6047 102.73 43.2941 103.039 43.1388 103.503C42.9835 103.967 42.9059 104.74 42.9059 105.746V121.984C42.9059 122.99 42.9835 123.763 43.1388 124.227C43.2941 124.691 43.6047 125 44.0706 125.155C44.5365 125.31 45.2353 125.387 46.2447 125.387H48.8071C50.6706 125.387 52.1459 124.846 53.233 123.686C54.32 122.603 54.9412 120.747 55.1741 118.118H56.1059C56.0282 118.969 55.9506 120.051 55.9506 121.443C55.9506 122.835 56.0282 124.459 56.2612 126.237C54.4753 126.16 51.4471 126.083 47.2541 126.083C42.2071 126.083 38.3247 126.16 35.7624 126.237V125.387C36.7718 125.31 37.4706 125.232 37.9365 125.078C38.4024 124.923 38.713 124.614 38.8682 124.15C39.0235 123.686 39.1012 122.912 39.1012 121.907V105.668C39.1012 104.663 39.0235 103.89 38.8682 103.426C38.713 102.962 38.4024 102.652 37.9365 102.498C37.4706 102.343 36.7718 102.189 35.7624 102.189V101.338C36.9271 101.415 38.6353 101.493 41.0424 101.493C43.2165 101.493 45.0024 101.415 46.2447 101.338V102.266Z" fill="#B48570"/>
<path d="M80.4094 101.493V102.343C79.6329 102.498 79.0118 102.885 78.5459 103.503C78.08 104.045 77.5365 105.05 76.9153 106.365L67.9082 126.624H67.2871L57.6588 104.973C56.8824 103.271 55.9506 102.421 54.7859 102.343V101.493C55.8729 101.57 57.3482 101.648 59.2118 101.648C61.5412 101.648 63.3271 101.57 64.4918 101.493V102.343C63.4824 102.421 62.7059 102.498 62.24 102.73C61.7741 102.962 61.5412 103.349 61.5412 103.813C61.5412 104.277 61.6965 104.895 62.0847 105.746L69.1506 121.598L75.2847 107.988C75.9835 106.519 76.2941 105.359 76.2941 104.509C76.2941 103.735 76.0612 103.194 75.5176 102.885C74.9741 102.575 74.1976 102.343 73.0329 102.266V101.416C73.8871 101.493 75.3623 101.57 77.6141 101.57C78.8565 101.57 79.7882 101.57 80.4094 101.493Z" fill="#B48570"/>
<path d="M102.539 126.392C100.753 126.315 97.7247 126.238 93.5318 126.238C88.4847 126.238 84.6024 126.315 82.04 126.392V125.542C83.0494 125.464 83.7482 125.387 84.2141 125.232C84.68 125.078 84.9906 124.768 85.1459 124.304C85.3012 123.84 85.3788 123.067 85.3788 122.062V105.823C85.3788 104.818 85.3012 104.044 85.1459 103.581C84.9906 103.117 84.68 102.807 84.2141 102.653C83.7482 102.498 83.0494 102.343 82.04 102.343V101.493C84.68 101.57 88.4847 101.647 93.5318 101.647C97.3365 101.647 100.132 101.57 101.685 101.493C101.529 103.117 101.374 104.586 101.374 105.9C101.374 106.983 101.452 107.834 101.529 108.452H100.598C100.442 106.21 99.8988 104.663 99.2 103.735C98.4235 102.885 97.1812 102.421 95.5506 102.421H92.5224C91.5129 102.421 90.8141 102.498 90.3482 102.653C89.8824 102.807 89.5718 103.117 89.4165 103.581C89.2612 104.044 89.1835 104.818 89.1835 105.823V113.479H92.6C93.4541 113.479 94.1529 113.247 94.6188 112.783C95.0847 112.319 95.3953 111.855 95.5506 111.313C95.7059 110.772 95.8612 110.076 96.0165 109.303H96.9482C96.8706 110.231 96.7929 111.236 96.7929 112.319V113.865C96.7929 114.948 96.8706 116.494 97.0259 118.427H96.0941C95.9388 117.113 95.6282 116.108 95.1624 115.334C94.6965 114.561 93.8424 114.252 92.6 114.252H89.1835V122.062C89.1835 123.067 89.2612 123.84 89.4165 124.304C89.5718 124.768 89.8824 125.078 90.3482 125.232C90.8141 125.387 91.5129 125.464 92.5224 125.464H95.5506C96.9482 125.464 98.0353 125.232 98.8118 124.846C99.5882 124.382 100.209 123.686 100.598 122.758C100.986 121.83 101.296 120.438 101.452 118.659H102.384C102.306 119.433 102.228 120.361 102.228 121.598C102.306 122.913 102.384 124.536 102.539 126.392Z" fill="#B48570"/>
<path d="M130.802 124.614C130.259 125.387 129.715 125.928 129.016 126.315C128.318 126.702 127.541 126.934 126.609 126.934C124.28 126.934 122.882 125.928 122.339 123.84L121.096 118.737C120.708 117.19 120.165 116.185 119.388 115.644C118.612 115.102 117.525 114.87 116.049 114.87H113.72V122.062C113.72 123.067 113.798 123.84 113.953 124.304C114.108 124.768 114.419 125.078 114.885 125.232C115.351 125.387 116.049 125.542 117.059 125.542V126.392C115.816 126.315 114.031 126.238 111.856 126.238C109.527 126.238 107.741 126.315 106.576 126.392V125.542C107.586 125.464 108.285 125.387 108.751 125.232C109.216 125.078 109.527 124.768 109.682 124.304C109.838 123.84 109.915 123.067 109.915 122.062V105.823C109.915 104.818 109.838 104.044 109.682 103.581C109.527 103.117 109.216 102.807 108.751 102.653C108.285 102.498 107.586 102.343 106.576 102.343V101.493C107.741 101.57 109.372 101.647 111.624 101.647L115.816 101.57C116.282 101.57 116.826 101.493 117.447 101.493C120.553 101.493 122.882 102.034 124.513 103.194C126.144 104.354 126.998 105.823 126.998 107.679C126.998 109.225 126.376 110.695 125.056 112.009C123.814 113.324 121.718 114.174 118.767 114.484C119.311 114.561 119.776 114.561 120.165 114.638C121.64 114.87 122.805 115.257 123.581 115.953C124.435 116.572 125.056 117.654 125.367 119.123L126.299 122.835C126.532 123.763 126.765 124.459 126.998 124.846C127.231 125.232 127.619 125.464 128.007 125.464C128.706 125.464 129.482 125 130.259 124.072L130.802 124.614ZM114.652 102.575C114.264 102.73 114.031 103.117 113.875 103.581C113.72 104.044 113.642 104.818 113.642 105.823V114.02H116.36C118.767 114.02 120.398 113.478 121.329 112.473C122.184 111.468 122.649 109.999 122.649 108.143C122.649 106.21 122.184 104.74 121.174 103.735C120.165 102.73 118.534 102.266 116.282 102.266C115.584 102.266 115.04 102.343 114.652 102.575Z" fill="#B48570"/>
<path d="M142.682 102.266C141.673 102.343 140.974 102.421 140.508 102.575C140.042 102.73 139.732 103.039 139.576 103.503C139.421 103.967 139.344 104.741 139.344 105.746V121.985C139.344 122.99 139.421 123.763 139.576 124.227C139.732 124.691 140.042 125.001 140.508 125.155C140.974 125.31 141.673 125.464 142.682 125.464V126.315C141.44 126.238 139.654 126.16 137.48 126.16C135.151 126.16 133.365 126.238 132.2 126.315V125.464C133.209 125.387 133.908 125.31 134.374 125.155C134.84 125.001 135.151 124.691 135.306 124.227C135.461 123.763 135.539 122.99 135.539 121.985V105.746C135.539 104.741 135.461 103.967 135.306 103.503C135.151 103.039 134.84 102.73 134.374 102.575C133.908 102.421 133.209 102.266 132.2 102.266V101.416C133.365 101.493 135.073 101.57 137.48 101.57C139.654 101.57 141.44 101.493 142.682 101.416V102.266Z" fill="#B48570"/>
<path d="M169.859 125.542V126.392C168.772 126.315 167.296 126.237 165.433 126.237C163.104 126.237 161.318 126.315 160.153 126.392V125.542C161.162 125.464 161.939 125.387 162.405 125.155C162.871 124.923 163.104 124.536 163.104 124.072C163.104 123.608 162.948 122.99 162.56 122.139L160.464 117.499H150.447L149.049 120.593C148.584 121.675 148.351 122.526 148.351 123.222C148.351 123.918 148.584 124.459 149.127 124.846C149.671 125.232 150.447 125.464 151.612 125.619V126.469C150.758 126.392 149.515 126.315 147.885 126.315C146.176 126.315 145.012 126.392 144.313 126.469V125.619C145.089 125.464 145.711 125 146.176 124.382C146.72 123.763 147.186 122.912 147.652 121.83L156.736 101.338H157.358L166.986 122.99C167.762 124.614 168.694 125.464 169.859 125.542ZM160.153 116.649L155.494 106.21L150.835 116.649H160.153Z" fill="#B48570"/>
</svg>
