<svg width="157" height="126" viewBox="0 0 157 126" fill="none" xmlns="http://www.w3.org/2000/svg">
<path d="M9.97176 98.3356C10.6529 98.5627 11.2584 98.9413 11.9396 99.3955C12.4694 99.7741 12.9235 99.9255 13.2263 99.9255C13.4533 99.9255 13.6047 99.7741 13.7561 99.5469C13.9074 99.2441 13.9831 98.8656 14.0588 98.2599H14.9671C14.8157 99.6984 14.74 102.348 14.74 105.982H13.8318C13.6804 103.938 13.0749 102.197 12.091 100.758C11.0314 99.3198 9.59333 98.6384 7.62549 98.6384C6.26314 98.6384 5.12784 99.017 4.29529 99.8498C3.46274 100.683 3.00863 101.742 3.00863 103.03C3.00863 104.014 3.23568 104.847 3.6898 105.528C4.14392 106.209 4.67372 106.815 5.3549 107.345C6.03608 107.875 7.02 108.481 8.30667 109.313L9.44196 109.995C11.0314 110.979 12.318 111.887 13.2263 112.569C14.1345 113.25 14.8914 114.159 15.4212 115.143C15.951 116.127 16.2537 117.263 16.2537 118.55C16.2537 120.821 15.4969 122.638 13.9831 123.925C12.4694 125.212 10.5016 125.818 8.23098 125.818C7.02 125.818 6.03608 125.666 5.27922 125.439C4.52235 125.212 3.76549 124.834 3.08431 124.379C2.55451 124.001 2.10039 123.849 1.79765 123.849C1.57059 123.849 1.41922 124.001 1.26784 124.228C1.11647 124.531 1.04078 124.909 0.965098 125.515H0.0568619C0.132548 124.152 0.208235 121.048 0.208235 116.354H1.11647C1.26784 118.928 1.94902 120.972 3.00863 122.562C4.06823 124.152 5.73333 124.985 8.00392 124.985C9.36627 124.985 10.5016 124.531 11.4855 123.698C12.4694 122.865 12.9235 121.578 12.9235 119.913C12.9235 118.474 12.4694 117.263 11.4855 116.279C10.5016 115.294 9.06353 114.159 6.94431 112.947C5.43059 112.039 4.21961 111.206 3.31137 110.525C2.40314 109.843 1.64627 108.935 1.04078 107.951C0.435293 106.966 0.132548 105.755 0.132548 104.468C0.132548 102.348 0.813724 100.683 2.17608 99.5469C3.53843 98.4113 5.27921 97.8813 7.24706 97.8813C8.45804 97.9571 9.29059 98.1085 9.97176 98.3356Z" fill="#B48570"/>
<path d="M29.4231 102.954C28.5149 103.03 27.8337 103.105 27.4553 103.257C27.0012 103.408 26.7741 103.711 26.6227 104.165C26.4714 104.619 26.3957 105.301 26.3957 106.285V121.275C26.3957 122.26 26.4714 122.941 26.6227 123.395C26.7741 123.849 27.0769 124.152 27.4553 124.304C27.9094 124.455 28.5149 124.531 29.4231 124.607V125.364C28.2878 125.288 26.6227 125.212 24.5792 125.212C22.3843 125.212 20.7949 125.212 19.7353 125.364V124.607C20.6435 124.531 21.3247 124.455 21.7031 124.304C22.1573 124.152 22.3843 123.849 22.5357 123.395C22.6871 122.941 22.7627 122.26 22.7627 121.275V106.209C22.7627 105.225 22.6871 104.544 22.5357 104.09C22.3843 103.635 22.0816 103.332 21.7031 103.181C21.249 103.03 20.6435 102.954 19.7353 102.878V102.121C20.7949 102.197 22.3843 102.273 24.5792 102.273C26.6227 102.273 28.2122 102.273 29.4231 102.121V102.954Z" fill="#B48570"/>
<path d="M42.2898 102.954C41.3816 103.03 40.7004 103.105 40.322 103.257C39.8678 103.408 39.6408 103.711 39.4894 104.165C39.338 104.619 39.2624 105.301 39.2624 106.285V121.275C39.2624 122.26 39.338 122.941 39.4894 123.395C39.6408 123.849 39.9435 124.077 40.322 124.228C40.7761 124.379 41.3816 124.455 42.2898 124.455H44.7118C46.4525 124.455 47.8149 123.925 48.7988 122.865C49.7827 121.805 50.3882 120.14 50.5396 117.717H51.4478C51.3722 118.474 51.2965 119.534 51.2965 120.821C51.2965 122.108 51.3722 123.622 51.5992 125.288C49.9341 125.212 47.2094 125.136 43.2737 125.136C38.5812 125.136 35.0239 125.136 32.602 125.288V124.531C33.5102 124.455 34.1914 124.379 34.5698 124.228C35.0239 124.077 35.251 123.774 35.4023 123.319C35.5537 122.865 35.6294 122.184 35.6294 121.2V106.134C35.6294 105.149 35.5537 104.468 35.4023 104.014C35.251 103.56 34.9482 103.257 34.5698 103.105C34.1157 102.954 33.5102 102.878 32.602 102.802V102.045C33.6616 102.121 35.251 102.197 37.4459 102.197C39.4894 102.197 41.0788 102.197 42.2898 102.045V102.954Z" fill="#B48570"/>
<path d="M73.9267 102.197V102.954C73.2455 103.105 72.64 103.484 72.1859 104.014C71.7318 104.544 71.2776 105.452 70.6722 106.664L62.3467 125.515H61.7412L52.8859 105.377C52.2047 103.787 51.2965 103.03 50.2369 102.954V102.197C51.2965 102.272 52.6588 102.348 54.3239 102.348C56.5188 102.348 58.1082 102.348 59.1678 102.197V102.954C58.2596 103.03 57.5028 103.105 57.1243 103.332C56.7459 103.56 56.4431 103.862 56.4431 104.392C56.4431 104.771 56.5945 105.377 56.9729 106.209L63.482 120.972L69.1584 108.329C69.7639 106.966 70.1423 105.906 70.1423 105.074C70.1423 104.392 69.9153 103.862 69.3855 103.56C68.8557 103.257 68.1745 103.03 67.1149 103.03V102.272C67.8718 102.348 69.3098 102.424 71.3533 102.424C72.4129 102.272 73.2455 102.272 73.9267 102.197Z" fill="#B48570"/>
<path d="M94.362 125.288C92.6969 125.212 89.9722 125.136 86.0365 125.136C81.3439 125.136 77.7867 125.136 75.3647 125.288V124.531C76.2729 124.455 76.9541 124.379 77.3325 124.228C77.7867 124.077 78.0137 123.774 78.1651 123.319C78.3165 122.865 78.3922 122.184 78.3922 121.2V106.134C78.3922 105.149 78.3165 104.468 78.1651 104.014C78.0137 103.56 77.711 103.257 77.3325 103.105C76.8784 102.954 76.2729 102.878 75.3647 102.802V102.045C77.7867 102.121 81.3439 102.197 86.0365 102.197C89.5937 102.197 92.0914 102.197 93.6051 102.045C93.4537 103.56 93.3023 104.922 93.3023 106.134C93.3023 107.118 93.378 107.875 93.4537 108.481H92.5455C92.3941 106.437 91.94 104.922 91.2588 104.09C90.5776 103.257 89.4423 102.878 87.8529 102.878H85.0525C84.1443 102.878 83.4631 102.954 83.0847 103.105C82.6306 103.257 82.4035 103.56 82.2522 103.938C82.1008 104.392 82.0251 105.074 82.0251 106.058V113.099H85.2039C86.0365 113.099 86.642 112.872 87.0961 112.493C87.5502 112.039 87.8529 111.585 88.0043 111.13C88.1557 110.6 88.3071 109.995 88.4584 109.238H89.3667C89.291 110.071 89.2153 111.055 89.2153 112.039V113.477C89.2153 114.462 89.291 115.9 89.4424 117.717H88.5341C88.3827 116.506 88.08 115.522 87.6259 114.84C87.1718 114.159 86.4149 113.78 85.2039 113.78H82.0251V120.973C82.0251 121.957 82.1008 122.638 82.2522 123.092C82.4035 123.547 82.7063 123.774 83.0847 123.925C83.5388 124.077 84.1443 124.152 85.0525 124.152H87.8529C89.1396 124.152 90.1235 123.925 90.8804 123.547C91.6373 123.168 92.1671 122.487 92.5455 121.578C92.9239 120.67 93.2267 119.383 93.378 117.793H94.2863C94.2106 118.474 94.1349 119.383 94.1349 120.518C94.0592 122.108 94.2106 123.622 94.362 125.288Z" fill="#B48570"/>
<path d="M120.398 123.698C119.944 124.379 119.338 124.909 118.733 125.288C118.127 125.666 117.371 125.818 116.538 125.818C114.419 125.818 113.132 124.834 112.602 122.941L111.391 118.171C111.013 116.733 110.483 115.824 109.802 115.294C109.121 114.84 108.061 114.537 106.699 114.537H104.504V121.2C104.504 122.184 104.58 122.865 104.731 123.319C104.882 123.774 105.185 124.077 105.564 124.228C106.018 124.379 106.623 124.455 107.531 124.531V125.288C106.396 125.212 104.731 125.136 102.687 125.136C100.493 125.136 98.9031 125.136 97.8435 125.288V124.531C98.7518 124.455 99.4329 124.379 99.8114 124.228C100.265 124.077 100.493 123.774 100.644 123.319C100.795 122.865 100.871 122.184 100.871 121.2V106.134C100.871 105.149 100.795 104.468 100.644 104.014C100.493 103.56 100.19 103.257 99.8114 103.105C99.3573 102.954 98.7518 102.878 97.8435 102.802V102.045C98.9031 102.121 100.417 102.197 102.46 102.197H106.32C106.774 102.197 107.229 102.121 107.834 102.121C110.634 102.121 112.829 102.651 114.343 103.711C115.857 104.771 116.614 106.134 116.614 107.875C116.614 109.313 116.008 110.676 114.873 111.888C113.662 113.099 111.77 113.856 109.045 114.234C109.575 114.31 109.953 114.31 110.332 114.386C111.694 114.613 112.754 114.992 113.511 115.597C114.267 116.203 114.873 117.187 115.176 118.55L116.008 122.032C116.235 122.941 116.462 123.547 116.689 123.925C116.916 124.304 117.219 124.455 117.598 124.455C118.203 124.455 118.96 124.001 119.717 123.168L120.398 123.698ZM105.488 103.181C105.109 103.332 104.882 103.711 104.807 104.165C104.655 104.619 104.58 105.301 104.58 106.209V113.856H107.153C109.348 113.856 110.937 113.402 111.77 112.417C112.602 111.433 112.981 110.146 112.981 108.405C112.981 106.588 112.527 105.225 111.618 104.317C110.71 103.408 109.196 102.954 107.077 102.954C106.396 102.954 105.866 103.03 105.488 103.181Z" fill="#B48570"/>
<path d="M131.448 102.954C130.54 103.03 129.859 103.105 129.48 103.257C129.026 103.408 128.799 103.711 128.648 104.165C128.496 104.619 128.421 105.301 128.421 106.285V121.275C128.421 122.26 128.496 122.941 128.648 123.395C128.799 123.849 129.102 124.152 129.48 124.304C129.935 124.455 130.54 124.531 131.448 124.607V125.364C130.313 125.288 128.648 125.212 126.604 125.212C124.409 125.212 122.82 125.212 121.76 125.364V124.607C122.669 124.531 123.35 124.455 123.728 124.304C124.182 124.152 124.409 123.849 124.561 123.395C124.712 122.941 124.788 122.26 124.788 121.275V106.209C124.788 105.225 124.712 104.544 124.561 104.09C124.409 103.635 124.107 103.332 123.728 103.181C123.274 103.03 122.669 102.954 121.76 102.878V102.121C122.82 102.197 124.409 102.273 126.604 102.273C128.648 102.273 130.237 102.273 131.448 102.121V102.954Z" fill="#B48570"/>
<path d="M156.576 124.531V125.288C155.592 125.212 154.23 125.137 152.489 125.137C150.294 125.137 148.705 125.137 147.645 125.288V124.531C148.553 124.455 149.31 124.379 149.689 124.152C150.143 123.925 150.37 123.622 150.37 123.092C150.37 122.714 150.218 122.108 149.84 121.275L147.872 116.96H138.638L137.352 119.837C136.898 120.821 136.671 121.654 136.671 122.26C136.671 122.941 136.898 123.395 137.352 123.774C137.806 124.152 138.563 124.379 139.622 124.455V125.212C138.866 125.137 137.73 125.061 136.141 125.061C134.551 125.061 133.492 125.061 132.811 125.212V124.455C133.492 124.304 134.097 123.925 134.551 123.32C135.006 122.714 135.46 121.957 135.914 120.973L144.315 101.97H144.92L153.851 122.108C154.608 123.698 155.441 124.455 156.576 124.531ZM147.569 116.203L143.255 106.512L138.941 116.203H147.569Z" fill="#B48570"/>
<path d="M92.1671 14.9047C90.6533 14.1476 88.9882 13.4662 87.3231 12.9362C84.4471 12.0277 81.4196 11.5735 78.3165 11.5735C74.0024 11.5735 69.9153 12.482 66.131 14.0719C65.5255 15.586 65.2227 17.1759 65.2227 18.7658C69.0827 16.646 73.5482 15.3589 78.3165 15.3589C93.2267 15.3589 105.336 27.4723 105.336 42.3869C105.336 48.8221 103.066 54.7273 99.2816 59.3456C99.5086 60.1784 99.7357 61.0869 99.8114 61.9954C99.9627 62.7524 99.9627 63.4338 100.038 64.1909C105.639 58.5885 109.121 50.9419 109.121 42.3869C109.121 30.4249 102.233 20.0528 92.1671 14.9047ZM51.2965 42.4626C51.2965 35.9516 53.6428 29.9707 57.5028 25.2767C57.0486 23.6869 56.8216 22.097 56.7459 20.5071C51.0694 26.1095 47.5122 33.9075 47.5122 42.4626C47.5122 54.4245 54.3996 64.8723 64.4659 69.9448C65.9796 70.7018 67.569 71.3832 69.2341 71.9132C72.1102 72.8217 75.1376 73.2759 78.3165 73.2759C82.7063 73.2759 86.869 72.3674 90.6533 70.7018C90.8047 70.399 90.8804 70.0962 90.9561 69.7933C91.3345 68.5063 91.4859 67.2192 91.5616 66.0079C87.6259 68.2035 83.1604 69.4905 78.3165 69.4905C63.4063 69.4148 51.2965 57.3014 51.2965 42.4626Z" fill="#B48570"/>
<path d="M89.6694 15.8133C90.1235 12.4064 88.9882 8.99949 86.7933 6.57682C85.658 5.36548 84.3714 4.45698 82.9333 3.85131C81.4953 3.24564 79.9059 3.01852 78.3922 3.01852V0.747263H78.4678V3.09423C75.8188 3.16993 73.2455 3.92702 71.0506 5.21407C69.9153 5.89544 68.9314 6.65253 67.9474 7.48532C67.0392 8.39382 66.2067 9.37803 65.5255 10.4379C62.8008 14.7533 62.271 20.2801 64.1631 24.8983C64.6929 26.0339 65.2227 27.1695 65.9796 28.1537C66.6608 29.1379 67.4933 29.9707 68.4772 30.8792L74.9106 36.406C79.2247 40.04 83.4631 43.7497 87.7016 47.5351L90.8804 50.3363C91.94 51.2448 93.151 52.3805 94.1349 53.7432C95.9514 56.3173 97.2381 59.3456 97.6922 62.4497C98.1463 65.5537 97.8435 68.8092 96.7839 71.6861C95.7243 74.6388 93.9079 77.2886 91.6373 79.3327C89.3667 81.4525 86.5663 82.891 83.6145 83.5723C82.1008 83.9509 80.6627 84.1023 79.149 84.1023C77.6353 84.1023 76.0459 83.8752 74.6078 83.3452C71.7318 82.2853 69.3098 80.1655 67.9474 77.5157C66.5851 74.8659 66.2823 71.7618 67.1149 69.0363C66.7365 71.8375 67.4176 74.7145 68.9314 76.91C70.4451 79.1056 72.7157 80.7711 75.2133 81.3768C76.5 81.6796 77.711 81.7553 79.0733 81.6796C80.36 81.6039 81.6467 81.3011 82.9333 80.9226C85.431 80.0898 87.6259 78.727 89.4424 76.91C91.2588 75.093 92.5455 72.8217 93.3024 70.4748C93.9835 68.0521 94.2106 65.478 93.7565 63.0554C93.3781 60.557 92.2428 58.2857 90.729 56.3173C90.3506 55.863 89.9722 55.4088 89.518 54.9545C89.0639 54.5003 88.6098 54.1217 88.08 53.6675L84.9012 50.942C80.6628 47.2323 76.3486 43.5983 72.1102 39.8128L65.7525 34.2104C64.6172 33.2262 63.4819 32.0149 62.5737 30.6521C61.6655 29.3651 60.9843 27.9266 60.3788 26.4881C59.3192 23.5355 58.9408 20.2801 59.3192 17.176C59.6976 14.072 60.9843 11.1193 62.7251 8.54524C63.6333 7.3339 64.6929 6.12257 65.8282 5.13836C66.9635 4.15415 68.3259 3.32135 69.6882 2.63998C72.4129 1.27722 75.5161 0.671554 78.4678 0.747263V3.09423H78.3922V0.822972C82.1765 0.974389 85.7337 2.8671 87.8529 5.81973C88.9126 7.25819 89.5937 8.99949 89.9722 10.6651C90.1992 12.4064 90.1235 14.2234 89.6694 15.8133Z" fill="#B48570"/>
</svg>
