<svg width="20" height="16" viewBox="0 0 20 16" fill="none" xmlns="http://www.w3.org/2000/svg">
<path d="M10.3922 15.1757L19.9162 1.36579C20.0167 1.2196 20.0272 1.03007 19.9457 0.873878C19.8633 0.717208 19.7014 0.61911 19.5243 0.61911L0.47621 0.619109C0.299063 0.619109 0.136679 0.717207 0.0542965 0.873877C0.0181045 0.943403 7.61189e-06 1.0196 7.60858e-06 1.09531C7.60444e-06 1.19008 0.0285816 1.28436 0.0842971 1.36579L9.60833 15.1757C9.69738 15.3047 9.84358 15.3814 10.0002 15.3814C10.1569 15.3814 10.3031 15.3042 10.3922 15.1757ZM1.3829 1.57151L18.6171 1.57151L9.99977 14.0666L1.3829 1.57151Z" fill="#949494"/>
</svg>
